<?xml version="1.0" encoding="UTF-8"?>
<svg version="1.1" xmlns="http://www.w3.org/2000/svg" width="320" height="320">
<path d="M0 0 C8.93352829 0.86049747 16.43976593 9.11601369 22.5390625 15.140625 C24.11629763 17.14801516 24.69764738 18.47691948 25 21 C24.67 21.66 24.34 22.32 24 23 C19.7884737 22.50509714 17.94756311 20.19032025 15.125 17.1875 C11.62730385 13.47599484 8.29392952 10.68527079 4 8 C3.49357075 11.06147257 2.99600678 14.12432299 2.5 17.1875 C2.35691406 18.05181641 2.21382812 18.91613281 2.06640625 19.80664062 C1.40685738 23.90526577 0.79290734 27.83226024 1 32 C1.90363281 32.47050781 2.80726562 32.94101563 3.73828125 33.42578125 C4.92983986 34.05439878 6.12123772 34.68332109 7.3125 35.3125 C7.90740234 35.62123047 8.50230469 35.92996094 9.11523438 36.24804688 C15.07892108 39.413132 15.07892108 39.413132 17 42 C17 42.99 17 43.98 17 45 C12.05843915 44.45177212 8.49143756 42.90131566 4.125 40.5625 C-0.85431606 37.95707452 -5.45284674 35.99848759 -11 35 C-10.09219496 48.22801629 -7.17137832 59.55030097 2.8125 69.0625 C11.60920503 76.20568905 21.18131913 79.20959096 32 82 C31.46890625 81.443125 30.9378125 80.88625 30.390625 80.3125 C19.3135775 68.34605453 18.26125941 58.36502014 18.82519531 42.5078125 C19.19520416 37.19952909 20.72278226 32.76453592 23 28 C23.474375 26.95972656 23.94875 25.91945312 24.4375 24.84765625 C27.52623363 18.60336543 31.21012419 13.10800319 35.625 7.75 C36.08011963 7.18869385 36.53523926 6.6273877 37.00415039 6.04907227 C38.99219389 3.74043469 40.72319158 2.12696049 43.50390625 0.8515625 C48.35634217 1.14012676 51.09313845 5.33493304 54.21484375 8.7109375 C65.90406001 22.15333652 71.56428164 38.34344538 71 56 C69.85871321 67.04555724 64.30469516 75.47996985 56 82.6875 C55.01 83.450625 54.02 84.21375 53 85 C54.72744016 85.65043719 56.4570369 86.29514844 58.1875 86.9375 C59.15042969 87.29714844 60.11335938 87.65679687 61.10546875 88.02734375 C71.30577127 91.45497577 86.00285515 92.24031209 95.8046875 87.390625 C103.39960619 82.57960889 111.88296396 76.23407208 116 68 C105.75542679 64.92971947 105.75542679 64.92971947 95.6328125 66.078125 C94.0132253 67.80300642 94.0132253 67.80300642 92.609375 69.82421875 C86.33227821 78.31048795 74.19848277 84.0059993 64 86 C62.58465222 86.06456879 61.16662311 86.08611039 59.75 86.0625 C57.89375 86.0315625 57.89375 86.0315625 56 86 C56 85.01 56 84.02 56 83 C57.19496094 82.62488281 58.38992187 82.24976563 59.62109375 81.86328125 C75.00934296 76.94680436 87.86706935 71.80737221 96 57 C99.32510171 49.97459055 99.65601072 42.67451952 100 35 C91.34652338 36.73069532 82.3563749 40.09575007 75 45 C74.01 45 73.02 45 72 45 C72.20703125 43.1953125 72.20703125 43.1953125 73 41 C75.07421875 39.3671875 75.07421875 39.3671875 77.6875 37.875 C78.53699219 37.37742188 79.38648438 36.87984375 80.26171875 36.3671875 C83 35 83 35 89 33 C88.01 24.42 87.02 15.84 86 7 C77.83474685 12.95801201 77.83474685 12.95801201 70.375 19.6875 C68 22 68 22 65 23 C64.79831555 20.27491475 64.70348238 18.52079277 66.07421875 16.11328125 C69.94402521 11.79371521 74.14150095 8.0821019 78.6875 4.5 C79.24590576 4.05438721 79.80431152 3.60877441 80.37963867 3.1496582 C83.62532225 0.67691827 84.77692346 0 89 0 C92.70380267 9.42786134 94.25533312 19.86523925 94 30 C94.56920166 29.87882812 95.13840332 29.75765625 95.72485352 29.6328125 C98.33592655 29.08127072 100.94913446 28.54057037 103.5625 28 C104.45775391 27.80921875 105.35300781 27.6184375 106.27539062 27.421875 C111.29261421 26.39270093 115.87899545 25.77520968 121 26 C120.49656714 33.70177132 119.29326988 40.99900828 117.5 48.5 C117.16162109 49.96179688 117.16162109 49.96179688 116.81640625 51.453125 C115.98331073 55.02212593 115.15951985 58.52144046 114 62 C116.97 62.99 119.94 63.98 123 65 C122.33107661 72.43368093 117.98880129 75.85555466 113 81 C112.45214844 81.64453125 111.90429688 82.2890625 111.33984375 82.953125 C105.52493202 89.55624727 95.7565444 94.90543195 87 96 C73.83280953 96.80480823 61.28892244 96.11728873 49.4375 89.6875 C45.36999551 87.69072507 44.2511103 87.58296323 40 89 C37.29790573 90.19908036 34.62699989 91.43651185 31.9765625 92.74609375 C20.97389111 97.38107737 6.18181545 98.2399231 -5.1875 94.375 C-7.69921875 93.24609375 -7.69921875 93.24609375 -10 92 C-10.74894531 91.59910156 -11.49789062 91.19820313 -12.26953125 90.78515625 C-21.16716604 85.40917726 -29.62600567 76.89488717 -35 68 C-35 67.01 -35 66.02 -35 65 C-32.03 63.68 -29.06 62.36 -26 61 C-27.06895506 54.91517886 -28.24389142 48.89689521 -29.625 42.875 C-30.82143114 37.41590716 -31.28818424 32.5715619 -31 27 C-26.45002272 25.67588552 -22.54027698 26.38685312 -18 27.3125 C-17.30132812 27.44333984 -16.60265625 27.57417969 -15.8828125 27.70898438 C-12.06411636 28.45471089 -8.55329753 29.41073216 -5 31 C-4.96261719 29.92363281 -4.92523438 28.84726563 -4.88671875 27.73828125 C-3.87791657 3.87791657 -3.87791657 3.87791657 0 0 Z M44 8 C33.34535132 17.12445978 25.27708029 30.96465847 23.78125 45.06152344 C22.98601975 56.15995561 24.10534785 65.35124194 31.125 74.3125 C35.07025191 78.40916882 39.27810661 81.98372341 45 83 C52.08515139 80.9590534 57.99580234 75.04347073 62 69 C65.10534238 63.19023972 65.51122226 58.28319611 65.4375 51.75 C65.42992676 50.81559082 65.42235352 49.88118164 65.41455078 48.91845703 C65.24771121 41.93189764 64.26058108 36.24690767 61 30 C60.36384766 28.64068359 60.36384766 28.64068359 59.71484375 27.25390625 C56.27165326 20.33875208 51.13577064 11.56788532 44 8 Z M-25 32 C-26.27288787 34.54577574 -25.85777111 35.5621732 -25.29296875 38.32421875 C-25.11830078 39.18853516 -24.94363281 40.05285156 -24.76367188 40.94335938 C-24.57353516 41.84892578 -24.38339844 42.75449219 -24.1875 43.6875 C-24.00896484 44.57373047 -23.83042969 45.45996094 -23.64648438 46.37304688 C-22.63170224 51.32239947 -21.46207815 56.16389534 -20 61 C-16.04 60.505 -16.04 60.505 -12 60 C-10.83204826 56.49614478 -11.24384096 55.5115844 -12.3125 52.0625 C-13.84723223 46.87759382 -14.6700878 41.80117795 -15.27734375 36.43359375 C-15.76376083 33.87333236 -15.76376083 33.87333236 -17.89453125 32.66796875 C-20.35646228 31.88691085 -22.43227472 31.8573486 -25 32 Z M105 33 C103.9420097 36.1739709 103.7919139 38.7281961 103.625 42.0625 C103.2147353 48.0617805 102.02657548 53.35362932 100 59 C100.98267859 60.20561184 100.98267859 60.20561184 102.84765625 60.09765625 C104.8984375 60.06510417 106.94921875 60.03255208 109 60 C112.0827212 50.72830419 114.76470691 41.73484704 116 32 C110.38232902 31.72584512 110.38232902 31.72584512 105 33 Z M-27 68 C-22.33072608 77.89800002 -13.11457799 84.77009832 -3.4375 89.5 C8.68853726 93.81833441 22.26430351 91.22636015 34 87 C34 86.67 34 86.34 34 86 C33.20078125 85.91363281 32.4015625 85.82726562 31.578125 85.73828125 C17.72272701 83.96570099 7.00783586 79.27010123 -2.7890625 69.15234375 C-6.22491316 65.70835127 -8.50456501 64.59334822 -13.4375 64.4375 C-18.4644689 64.70828976 -22.4331396 65.93198774 -27 68 Z M34 83 C34 83.99 34 84.98 34 86 C34.99 85.67 35.98 85.34 37 85 C36.01 84.34 35.02 83.68 34 83 Z " fill="#B78160" transform="translate(117,160)"/>
<path d="M0 0 C1.05614502 0.00829834 2.11229004 0.01659668 3.20043945 0.02514648 C10.78348017 0.18982957 17.21168041 1.00210359 24.0625 4.4375 C25.21492188 5.0046875 26.36734375 5.571875 27.5546875 6.15625 C38.02018903 11.49746993 38.02018903 11.49746993 40.0625 14.4375 C40.02734375 16.39453125 40.02734375 16.39453125 39.0625 18.4375 C37.12890625 20.26171875 37.12890625 20.26171875 34.625 22.125 C29.88894842 25.75029416 25.47630929 29.60957149 21.09375 33.65234375 C19.0625 35.4375 19.0625 35.4375 17.0625 36.4375 C16.49402344 35.71304688 15.92554688 34.98859375 15.33984375 34.2421875 C8.91028385 26.10599799 8.91028385 26.10599799 1.0625 19.4375 C-1.88499348 19.61307689 -3.45656939 20.04041029 -5.74267578 21.92797852 C-6.2839209 22.55115967 -6.82516602 23.17434082 -7.3828125 23.81640625 C-7.98480469 24.48994141 -8.58679688 25.16347656 -9.20703125 25.85742188 C-9.81933594 26.56447266 -10.43164062 27.27152344 -11.0625 28 C-12.286771 29.40371197 -13.51822459 30.80120174 -14.7578125 32.19140625 C-15.56629639 33.12448608 -15.56629639 33.12448608 -16.39111328 34.07641602 C-17.9375 35.4375 -17.9375 35.4375 -20.9375 35.4375 C-22.3046875 34.0390625 -22.3046875 34.0390625 -23.8125 32.0625 C-28.68865655 26.18583617 -34.81882919 21.92759226 -40.9375 17.4375 C-37.54900508 10.01732362 -30.25356052 6.34144207 -22.9375 3.4375 C-15.23649546 0.8312631 -8.10948083 -0.08254421 0 0 Z " fill="#F4A240" transform="translate(161.9375,139.5625)"/>
<path d="M0 0 C8.93352829 0.86049747 16.43976593 9.11601369 22.5390625 15.140625 C24.11629763 17.14801516 24.69764738 18.47691948 25 21 C24.67 21.66 24.34 22.32 24 23 C19.7884737 22.50509714 17.94756311 20.19032025 15.125 17.1875 C11.62730385 13.47599484 8.29392952 10.68527079 4 8 C3.49357075 11.06147257 2.99600678 14.12432299 2.5 17.1875 C2.35691406 18.05181641 2.21382812 18.91613281 2.06640625 19.80664062 C1.40685738 23.90526577 0.79290734 27.83226024 1 32 C1.90363281 32.47050781 2.80726562 32.94101563 3.73828125 33.42578125 C4.92983986 34.05439878 6.12123772 34.68332109 7.3125 35.3125 C7.90740234 35.62123047 8.50230469 35.92996094 9.11523438 36.24804688 C15.07892108 39.413132 15.07892108 39.413132 17 42 C17 42.99 17 43.98 17 45 C12.05843915 44.45177212 8.49143756 42.90131566 4.125 40.5625 C-0.85431606 37.95707452 -5.45284674 35.99848759 -11 35 C-10.09219496 48.22801629 -7.17137832 59.55030097 2.8125 69.0625 C12.11825836 76.61034898 22.68774369 79.7017615 34 83 C34 83.99 34 84.98 34 86 C22.01775121 87.03295248 11.80839926 82.24958893 2.4453125 75.0703125 C0.17004948 73.14397161 -1.89378107 71.10621893 -4 69 C-7.1459629 66.16992272 -9.27196094 65.52461619 -13.5 65.4375 C-18.18701333 65.74473797 -22.51045328 66.64466514 -27 68 C-25.68 69.65 -24.36 71.3 -23 73 C-23.495 73.99 -23.495 73.99 -24 75 C-25.98 73.35 -27.96 71.7 -30 70 C-28.68 71.98 -27.36 73.96 -26 76 C-26.495 76.99 -26.495 76.99 -27 78 C-28.3421492 76.40320196 -29.67347115 74.79729803 -31 73.1875 C-31.7425 72.29417969 -32.485 71.40085937 -33.25 70.48046875 C-35 68 -35 68 -35 65 C-32.03 63.68 -29.06 62.36 -26 61 C-27.06895506 54.91517886 -28.24389142 48.89689521 -29.625 42.875 C-30.82143114 37.41590716 -31.28818424 32.5715619 -31 27 C-26.45002272 25.67588552 -22.54027698 26.38685312 -18 27.3125 C-17.30132812 27.44333984 -16.60265625 27.57417969 -15.8828125 27.70898438 C-12.06411636 28.45471089 -8.55329753 29.41073216 -5 31 C-4.96261719 29.92363281 -4.92523438 28.84726563 -4.88671875 27.73828125 C-3.87791657 3.87791657 -3.87791657 3.87791657 0 0 Z M-25 32 C-26.27288787 34.54577574 -25.85777111 35.5621732 -25.29296875 38.32421875 C-25.11830078 39.18853516 -24.94363281 40.05285156 -24.76367188 40.94335938 C-24.57353516 41.84892578 -24.38339844 42.75449219 -24.1875 43.6875 C-24.00896484 44.57373047 -23.83042969 45.45996094 -23.64648438 46.37304688 C-22.63170224 51.32239947 -21.46207815 56.16389534 -20 61 C-16.04 60.505 -16.04 60.505 -12 60 C-10.83204826 56.49614478 -11.24384096 55.5115844 -12.3125 52.0625 C-13.84723223 46.87759382 -14.6700878 41.80117795 -15.27734375 36.43359375 C-15.76376083 33.87333236 -15.76376083 33.87333236 -17.89453125 32.66796875 C-20.35646228 31.88691085 -22.43227472 31.8573486 -25 32 Z " fill="#AA6B4B" transform="translate(117,160)"/>
<path d="M0 0 C5.83280437 0.44325284 8.54972798 3.93429742 12.421875 7.96875 C17.90126901 14.41118901 23.06102189 21.40770712 24 30 C21.3144406 27.3144406 20.93950026 24.62378672 20 21 C18.68 20.67 17.36 20.34 16 20 C16.37253906 20.68707031 16.74507812 21.37414062 17.12890625 22.08203125 C17.60199219 22.98308594 18.07507813 23.88414062 18.5625 24.8125 C19.03816406 25.70582031 19.51382813 26.59914062 20.00390625 27.51953125 C21 30 21 30 20 33 C19.52691406 32.03320312 19.05382812 31.06640625 18.56640625 30.0703125 C14.28540226 21.5619265 9.84080435 14.72995798 3 8 C-7.48041308 15.91378131 -15.05226512 28.93315727 -17 42 C-17.2484196 44.93481755 -17.41210723 47.87121186 -17.5625 50.8125 C-17.60568359 51.60076172 -17.64886719 52.38902344 -17.69335938 53.20117188 C-17.79878321 55.13394215 -17.89983094 57.06695026 -18 59 C-20.26954631 55.59568053 -20.36549949 53.83475798 -20.625 49.8125 C-20.69976562 48.72582031 -20.77453125 47.63914063 -20.8515625 46.51953125 C-20.92503906 45.27236328 -20.92503906 45.27236328 -21 44 C-21.66 44.99 -22.32 45.98 -23 47 C-24.1526832 32.01511841 -15.55040546 17.77355331 -6.125 6.75 C-1.92253326 1.92253326 -1.92253326 1.92253326 0 0 Z " fill="#C69673" transform="translate(159,161)"/>
<path d="M0 0 C4.75 -0.125 4.75 -0.125 7 1 C9.32914823 1.36141955 11.66253478 1.69699525 14 2 C14 2.33 14 2.66 14 3 C12.35 3 10.7 3 9 3 C9.90780504 16.22801629 12.82862168 27.55030097 22.8125 37.0625 C32.11825836 44.61034898 42.68774369 47.7017615 54 51 C54 51.99 54 52.98 54 54 C42.01775121 55.03295248 31.80839926 50.24958893 22.4453125 43.0703125 C20.17004948 41.14397161 18.10621893 39.10621893 16 37 C12.8540371 34.16992272 10.72803906 33.52461619 6.5 33.4375 C1.81298667 33.74473797 -2.51045328 34.64466514 -7 36 C-5.68 37.65 -4.36 39.3 -3 41 C-3.33 41.66 -3.66 42.32 -4 43 C-5.98 41.35 -7.96 39.7 -10 38 C-8.68 39.98 -7.36 41.96 -6 44 C-6.33 44.66 -6.66 45.32 -7 46 C-8.3421492 44.40320196 -9.67347115 42.79729803 -11 41.1875 C-11.7425 40.29417969 -12.485 39.40085938 -13.25 38.48046875 C-15 36 -15 36 -15 33 C-14.37351562 32.74605469 -13.74703125 32.49210937 -13.1015625 32.23046875 C-12.28429687 31.88628906 -11.46703125 31.54210937 -10.625 31.1875 C-9.81289062 30.85105469 -9.00078125 30.51460937 -8.1640625 30.16796875 C-5.69852542 29.05560918 -5.69852542 29.05560918 -4 26 C-3.67 27.32 -3.34 28.64 -3 30 C-7.75 33 -7.75 33 -10 33 C-10 33.66 -10 34.32 -10 35 C-9.41992188 34.79503906 -8.83984375 34.59007812 -8.2421875 34.37890625 C-0.66030081 31.76403114 6.00051796 30.84001036 14 31 C14 30.34 14 29.68 14 29 C9.71 29 5.42 29 1 29 C1 28.67 1 28.34 1 28 C4.465 27.505 4.465 27.505 8 27 C7.70996094 25.80117187 7.70996094 25.80117187 7.4140625 24.578125 C5.82073435 17.85775084 4.49647003 11.21702994 3.625 4.36328125 C3.18535489 1.64504435 3.18535489 1.64504435 0 0 Z " fill="#CD8B5B" transform="translate(97,192)"/>
<path d="M0 0 C1.890625 0.21484375 1.890625 0.21484375 4 1 C5.046875 3.06640625 5.046875 3.06640625 5.75 5.5625 C5.99234375 6.38878906 6.2346875 7.21507812 6.484375 8.06640625 C6.65453125 8.70449219 6.8246875 9.34257812 7 10 C7.66 10 8.32 10 9 10 C13.38329463 20.67236953 14.51446246 33.03006458 11.21484375 44.17578125 C8.11087722 51.39175489 3.3419999 57.39141087 -3 62 C-5.3125 62.75 -5.3125 62.75 -7 63 C-7 63.66 -7 64.32 -7 65 C-6.00097656 65.33773437 -5.00195312 65.67546875 -3.97265625 66.0234375 C-2.66913783 66.47357336 -1.36575957 66.92411525 -0.0625 67.375 C0.59685547 67.59671875 1.25621094 67.8184375 1.93554688 68.046875 C6.88671875 69.7734375 6.88671875 69.7734375 8 72 C-0.87691323 71.84694977 -7.37684116 68.15315766 -15 64 C-12.3920607 61.23865251 -9.88004379 59.19160507 -6.625 57.25 C-0.57274424 53.31154691 3.91712209 47.98710864 6 41 C6.31425781 37.64276082 6.33244527 34.30765483 6.3125 30.9375 C6.30903564 30.000271 6.30557129 29.06304199 6.30200195 28.09741211 C6.15354617 18.61018528 4.62968699 10.37752883 0 2 C0 1.34 0 0.68 0 0 Z " fill="#C19167" transform="translate(175,181)"/>
<path d="M0 0 C8.93352829 0.86049747 16.43976593 9.11601369 22.5390625 15.140625 C24.11629763 17.14801516 24.69764738 18.47691948 25 21 C24.67 21.66 24.34 22.32 24 23 C19.7884737 22.50509714 17.94756311 20.19032025 15.125 17.1875 C11.62730385 13.47599484 8.29392952 10.68527079 4 8 C3.49357075 11.06147257 2.99600678 14.12432299 2.5 17.1875 C2.28537109 18.48397461 2.28537109 18.48397461 2.06640625 19.80664062 C1.40685738 23.90526577 0.79290734 27.83226024 1 32 C1.90363281 32.47050781 2.80726562 32.94101563 3.73828125 33.42578125 C4.92983986 34.05439878 6.12123772 34.68332109 7.3125 35.3125 C7.90740234 35.62123047 8.50230469 35.92996094 9.11523438 36.24804688 C15.07892108 39.413132 15.07892108 39.413132 17 42 C17 42.99 17 43.98 17 45 C12.40191871 44.46105575 9.13215631 43.23428472 5.125 40.9375 C4.15820312 40.38964844 3.19140625 39.84179688 2.1953125 39.27734375 C1.47085938 38.85582031 0.74640625 38.43429688 0 38 C3 37 3 37 6 37 C2.535 35.02 2.535 35.02 -1 33 C-1 28.38 -1 23.76 -1 19 C-1.66 19 -2.32 19 -3 19 C-3 23.29 -3 27.58 -3 32 C-4.32 31.67 -5.64 31.34 -7 31 C-6.34 31 -5.68 31 -5 31 C-4.96261719 29.92363281 -4.92523438 28.84726563 -4.88671875 27.73828125 C-3.87791657 3.87791657 -3.87791657 3.87791657 0 0 Z " fill="#C18D6B" transform="translate(117,160)"/>
<path d="M0 0 C4.68403942 0.54305173 7.99155485 1.82749402 12.0859375 4.140625 C12.65650879 4.45930038 13.22708008 4.77797577 13.81494141 5.10630798 C15.672963 6.14612816 17.52387818 7.1979542 19.375 8.25 C21.31979341 9.34300214 23.26624448 10.43301103 25.21279907 11.52287292 C26.53285991 12.26224123 27.85233591 13.00265463 29.17123413 13.74409485 C36.4952292 17.85633102 43.90000785 21.81616199 51.32177734 25.74902344 C56.49070471 28.51929824 61.45437897 31.27459434 66 35 C66 35.99 66 36.98 66 38 C62.35794543 37.41121799 59.51109174 36.41946818 56.25390625 34.69921875 C55.34519775 34.22266846 54.43648926 33.74611816 53.50024414 33.25512695 C52.53078857 32.73781006 51.56133301 32.22049316 50.5625 31.6875 C49.54986084 31.15278076 48.53722168 30.61806152 47.49389648 30.06713867 C31.53349548 21.6125668 15.70903349 12.91228834 0 4 C0 2.68 0 1.36 0 0 Z " fill="#F3BB74" transform="translate(45,130)"/>
<path d="M0 0 C0 0.99 0 1.98 0 3 C-6.7717766 5.2524593 -13.68805873 6.03238118 -20.74609375 6.9453125 C-22.0846006 7.12150121 -23.4230653 7.29801035 -24.76148987 7.474823 C-27.55743322 7.84294551 -30.35383844 8.20726437 -33.15063477 8.56884766 C-36.71652912 9.03016326 -40.28111043 9.50085426 -43.845397 9.97441292 C-46.60658863 10.34021922 -49.36841361 10.70104844 -52.1304493 11.06042099 C-54.07824862 11.31471879 -56.02551339 11.57310042 -57.97276306 11.83157349 C-64.03469501 12.60931195 -69.88790678 13.20483205 -76 13 C-76 12.01 -76 11.02 -76 10 C-69.45684737 7.86212648 -62.82084533 6.99004633 -56.015625 6.0546875 C-54.13855865 5.7925798 -54.13855865 5.7925798 -52.22357178 5.525177 C-49.58133285 5.15791703 -46.9388971 4.79282793 -44.29589844 4.43115234 C-40.93853679 3.97124812 -37.58287773 3.5000232 -34.22754288 3.02558708 C-30.99119945 2.5699828 -27.75333261 2.12547691 -24.515625 1.6796875 C-22.73070648 1.42661331 -22.73070648 1.42661331 -20.909729 1.16842651 C-13.89055696 0.22015674 -7.08186965 -0.21655896 0 0 Z " fill="#F4BD77" transform="translate(293,172)"/>
<path d="M0 0 C8.39130569 -0.25762664 16.42982844 0.52348316 24.734375 1.6796875 C26.01177551 1.85251251 27.28917603 2.02533752 28.60528564 2.20339966 C31.28845764 2.56701098 33.97087891 2.93561296 36.65283203 3.30810547 C40.07311193 3.78287491 43.49479448 4.24646239 46.91707993 4.7065258 C50.21108109 5.1505744 53.50392826 5.60288444 56.796875 6.0546875 C58.01679138 6.21935516 59.23670776 6.38402283 60.49359131 6.55368042 C66.15433644 7.34464353 71.56436243 8.21491201 77 10 C77 10.99 77 11.98 77 13 C68.99747031 13.27646168 61.3166836 12.42089556 53.3984375 11.3203125 C51.48377182 11.06107498 51.48377182 11.06107498 49.53042603 10.79660034 C46.84553731 10.432558 44.16132356 10.06398791 41.47753906 9.69189453 C38.05833007 9.21806584 34.63786425 8.75416834 31.21686363 8.2934742 C27.92257537 7.8487796 24.6292973 7.39683305 21.3359375 6.9453125 C20.11804535 6.78064484 18.9001532 6.61597717 17.64535522 6.44631958 C11.6443347 5.61011223 5.84038825 4.62017864 0 3 C0 2.01 0 1.02 0 0 Z " fill="#F6C98C" transform="translate(29,172)"/>
<path d="M0 0 C0 1.32 0 2.64 0 4 C-11.44751943 10.5529401 -23.09224481 16.70303108 -34.8125 22.75 C-35.51438446 23.11326385 -36.21626892 23.47652771 -36.93942261 23.85079956 C-62.36857434 37 -62.36857434 37 -66 37 C-65.83837891 35.203125 -65.83837891 35.203125 -65 33 C-62.68115234 31.359375 -62.68115234 31.359375 -59.5859375 29.75 C-58.44310303 29.14728271 -57.30026855 28.54456543 -56.12280273 27.92358398 C-54.87366969 27.28212727 -53.62439896 26.64093863 -52.375 26 C-51.10230594 25.33463751 -49.8302567 24.66804024 -48.55883789 24.00024414 C-45.33012161 22.30818839 -42.09365523 20.63159626 -38.85467529 18.95928955 C-36.03531215 17.50103666 -33.22280235 16.02975111 -30.41015625 14.55859375 C-27.51766988 13.04578514 -24.62460291 11.53440401 -21.72607422 10.03320312 C-20.86643066 9.58783203 -20.00678711 9.14246094 -19.12109375 8.68359375 C-18.2894873 8.25288574 -17.45788086 7.82217773 -16.60107422 7.37841797 C-12.80392058 5.36614751 -9.06671607 3.24744931 -5.33227539 1.12133789 C-3 0 -3 0 0 0 Z " fill="#F3BD78" transform="translate(278,131)"/>
<path d="M0 0 C8.6605868 1.14946003 15.62657043 12.84065419 20.71875 19.21484375 C23.05706682 22.06967233 25.49914718 24.78688343 28 27.5 C32.89347204 32.8265899 37.50204827 38.33686459 42 44 C42.62519531 44.77988281 43.25039062 45.55976563 43.89453125 46.36328125 C44.72017578 47.42095703 44.72017578 47.42095703 45.5625 48.5 C46.03816406 49.1084375 46.51382813 49.716875 47.00390625 50.34375 C48 52 48 52 48 55 C38.46586603 51.01100602 31.09352916 39.90033135 24.58203125 32.10546875 C23.68025193 31.02817311 22.77788802 29.9513666 21.875 28.875 C21.41681885 28.32875977 20.9586377 27.78251953 20.48657227 27.21972656 C16.25753107 22.22130993 11.82626565 17.42550231 7.32763672 12.66943359 C0 4.89728533 0 4.89728533 0 0 Z " fill="#F4C585" transform="translate(73,96)"/>
<path d="M0 0 C-1.51487547 4.83490196 -4.26673028 7.97140614 -7.5625 11.6875 C-8.10044189 12.30471924 -8.63838379 12.92193848 -9.19262695 13.55786133 C-13.02998488 17.94707818 -16.94264261 22.26721709 -20.86328125 26.58203125 C-23.10969731 29.12413644 -25.24621053 31.73379395 -27.375 34.375 C-31.1952918 39.10488509 -35.21468864 43.59535865 -39.37060547 48.02880859 C-41.47170437 50.27949536 -43.2857728 52.4286592 -45 55 C-45.99 55 -46.98 55 -48 55 C-47.56834839 50.12593392 -45.14960116 47.37836454 -42 43.875 C-40.99130473 42.72082299 -39.98350506 41.5658627 -38.9765625 40.41015625 C-38.22101074 39.54994873 -38.22101074 39.54994873 -37.45019531 38.67236328 C-35.36472652 36.26740348 -33.37113018 33.79179244 -31.375 31.3125 C-27.75399337 26.86383471 -23.98501566 22.58184013 -20.125 18.33984375 C-18.18516782 16.20388884 -16.27286851 14.0482289 -14.375 11.875 C-13.54162109 10.92753906 -13.54162109 10.92753906 -12.69140625 9.9609375 C-11.48991887 8.56798908 -10.31252361 7.15409881 -9.15234375 5.7265625 C-8.54519531 4.99179688 -7.93804687 4.25703125 -7.3125 3.5 C-6.50232422 2.49453125 -6.50232422 2.49453125 -5.67578125 1.46875 C-4 0 -4 0 0 0 Z " fill="#F2BC75" transform="translate(251,97)"/>
<path d="M0 0 C0 3.90838866 -1.50567876 5.11594107 -4 8 C-3.34 8 -2.68 8 -2 8 C-5.39613897 15.55600297 -12.05343425 18.78869797 -19.3515625 22.01953125 C-30.97894095 26.32406221 -45.48680904 24.79258055 -57 21 C-54.10765685 20.17361624 -52.11257569 20 -49 20 C-53.62 18.35 -58.24 16.7 -63 15 C-63 13.68 -63 12.36 -63 11 C-62.01 11.33 -61.02 11.66 -60 12 C-60.33 12.33 -60.66 12.66 -61 13 C-59.27255984 13.65043719 -57.5429631 14.29514844 -55.8125 14.9375 C-54.84957031 15.29714844 -53.88664063 15.65679687 -52.89453125 16.02734375 C-42.68668636 19.45751025 -28.01504013 20.22926059 -18.19921875 15.3984375 C-11.40995102 11.08128324 -5.5270166 5.81791221 0 0 Z " fill="#D0A37E" transform="translate(231,232)"/>
<path d="M0 0 C0.99 0 1.98 0 3 0 C2.53322763 7.70650706 -0.13910995 14.29378084 -2.9375 21.4375 C-3.4308403 22.7138047 -3.92358946 23.99033803 -4.41577148 25.26708984 C-5.68035566 28.53814142 -6.95761845 31.80405734 -8.24060059 35.06793213 C-8.98396591 36.95920599 -9.72508968 38.85134529 -10.46582031 40.74365234 C-11.82451261 44.20686631 -13.19084613 47.66690109 -14.5625 51.125 C-14.97943115 52.17872803 -15.3963623 53.23245605 -15.82592773 54.31811523 C-16.21466064 55.28821533 -16.60339355 56.25831543 -17.00390625 57.2578125 C-17.34236572 58.1048877 -17.6808252 58.95196289 -18.02954102 59.82470703 C-19 62 -19 62 -21 65 C-21.66 65 -22.32 65 -23 65 C-22.45327398 58.54937931 -20.83194563 53.06567346 -18.578125 47.015625 C-18.2362616 46.07877869 -17.89439819 45.14193237 -17.54217529 44.17669678 C-16.81982879 42.20195991 -16.09345499 40.22869204 -15.36328125 38.25683594 C-14.2595836 35.27588414 -13.1677489 32.29080869 -12.078125 29.3046875 C-2.12416681 2.12416681 -2.12416681 2.12416681 0 0 Z " fill="#F3C077" transform="translate(206,74)"/>
<path d="M0 0 C1.82739258 0.11352539 1.82739258 0.11352539 4 1 C5.4284668 3.60327148 5.4284668 3.60327148 6.76171875 7.18359375 C7.0105632 7.8419371 7.25940765 8.50028046 7.51579285 9.17857361 C8.3639132 11.44551894 9.18383774 13.72136181 10 16 C10.3027887 16.83621887 10.60557739 17.67243774 10.9175415 18.53399658 C12.91744734 24.06780874 14.87333712 29.61609756 16.80639648 35.17358398 C17.82249782 38.09120765 18.84751591 41.00560117 19.87304688 43.91992188 C20.52657795 45.79147949 21.17959194 47.66321776 21.83203125 49.53515625 C22.13615433 50.39770523 22.4402774 51.26025421 22.75361633 52.14894104 C24.23245947 56.42443327 25.43410753 60.48704183 26 65 C25.01 65 24.02 65 23 65 C19.66519715 58.67783815 17.12050024 52.24976928 14.70703125 45.52734375 C14.31553391 44.4454628 13.92403656 43.36358185 13.52067566 42.24891663 C12.69887024 39.97307751 11.87960236 37.69632065 11.06274414 35.41870117 C9.81410747 31.94197587 8.55304926 28.46992817 7.29101562 24.99804688 C6.49143172 22.77891801 5.69257858 20.55952567 4.89453125 18.33984375 C4.51851273 17.30738022 4.1424942 16.27491669 3.75508118 15.21116638 C1.93836164 10.11387622 0.49608413 5.3965079 0 0 Z " fill="#F4C27E" transform="translate(114,74)"/>
<path d="M0 0 C1.32 0 2.64 0 4 0 C4.02315806 8.55351574 4.04093279 17.10701841 4.05181217 25.66055775 C4.0570334 29.63219624 4.0641173 33.6038133 4.07543945 37.57543945 C4.08629527 41.40741372 4.09228257 45.23936736 4.09487724 49.07135582 C4.09672662 50.53420016 4.10033792 51.99704335 4.10573006 53.45987892 C4.11297622 55.50688757 4.11398943 57.55381069 4.11352539 59.60083008 C4.115746 60.76665115 4.11796661 61.93247223 4.12025452 63.13362122 C4 66 4 66 3 69 C2.34 69 1.68 69 1 69 C-0.11817376 65.64547871 -0.1202587 63.13581736 -0.11352539 59.60083008 C-0.11367142 58.95665634 -0.11381744 58.3124826 -0.1139679 57.64878845 C-0.11327195 55.52233498 -0.10549448 53.3959694 -0.09765625 51.26953125 C-0.09579094 49.79408313 -0.09436757 48.31863439 -0.09336853 46.84318542 C-0.08955226 42.96174405 -0.07972956 39.08034015 -0.06866455 35.19891357 C-0.05843131 31.23743192 -0.05386681 27.27594419 -0.04882812 23.31445312 C-0.0381065 15.54295167 -0.02104075 7.77148109 0 0 Z " fill="#F4B86A" transform="translate(159,67)"/>
<path d="M0 0 C0.495 1.485 0.495 1.485 1 3 C2.24716797 3.18175781 2.24716797 3.18175781 3.51953125 3.3671875 C5.14955078 3.61855469 5.14955078 3.61855469 6.8125 3.875 C7.89144531 4.03742188 8.97039062 4.19984375 10.08203125 4.3671875 C13 5 13 5 16 7 C15.14277344 6.84660156 14.28554687 6.69320312 13.40234375 6.53515625 C6.97175526 5.42817792 6.97175526 5.42817792 0.96484375 7.2109375 C-0.13389879 8.4041665 -1.19208862 9.6355624 -2.21484375 10.89453125 C-9.19564166 19.12790122 -20.45891481 24.93901389 -31 27 C-32.41534778 27.06456879 -33.83337689 27.08611039 -35.25 27.0625 C-37.10625 27.0315625 -37.10625 27.0315625 -39 27 C-39 26.01 -39 25.02 -39 24 C-37.80503906 23.62488281 -36.61007813 23.24976563 -35.37890625 22.86328125 C-20.62630864 18.14989221 -8.79445563 13.32493277 0 0 Z " fill="#D59865" transform="translate(212,219)"/>
<path d="M0 0 C3.91806232 8.87138501 4.50834787 21.59369549 2 31 C1.67 31 1.34 31 1 31 C0.34 24.07 -0.32 17.14 -1 10 C-1.66 10 -2.32 10 -3 10 C-3 9.01 -3 8.02 -3 7 C-11.15523848 12.94053041 -11.15523848 12.94053041 -18.625 19.6875 C-21 22 -21 22 -24 23 C-24.20168445 20.27491475 -24.29651762 18.52079277 -22.92578125 16.11328125 C-19.05597479 11.79371521 -14.85849905 8.0821019 -10.3125 4.5 C-9.75409424 4.05438721 -9.19568848 3.60877441 -8.62036133 3.1496582 C-5.37467775 0.67691827 -4.22307654 0 0 0 Z " fill="#C59272" transform="translate(206,160)"/>
<path d="M0 0 C0.66 0.33 1.32 0.66 2 1 C2.31241371 3.54941373 2.51303421 6.00361513 2.625 8.5625 C2.66367188 9.27341797 2.70234375 9.98433594 2.7421875 10.71679688 C2.83671783 12.47742425 2.91945817 14.23867728 3 16 C3.66 16 4.32 16 5 16 C5.23074219 16.65226562 5.46148437 17.30453125 5.69921875 17.9765625 C7.28808545 22.23447405 8.70428632 26.00998745 11.75 29.4375 C14 32 14 32 14 35 C14.99 35.33 15.98 35.66 17 36 C17.33 36.99 17.66 37.98 18 39 C12.3341544 38.39725047 9.93995594 36.26157276 6.25 31.9375 C-0.65055639 22.87390719 -1.78725964 15.30928758 -1 4 C-0.484375 1.61328125 -0.484375 1.61328125 0 0 Z " fill="#CE9A77" transform="translate(137,204)"/>
<path d="M0 0 C4.75 -0.125 4.75 -0.125 7 1 C9.32914823 1.36141955 11.66253478 1.69699525 14 2 C14 2.33 14 2.66 14 3 C12.35 3 10.7 3 9 3 C9.91824521 16.38014446 12.87019987 27.71328914 23.125 37.1875 C26.25459764 39.80216385 29.46551828 41.96861638 33 44 C32.01 44.495 32.01 44.495 31 45 C25.80855557 41.93560572 21.88074317 39.04400689 18.25 34.1875 C15.72489674 31.12863508 14.52192763 30.12266502 10.609375 29.203125 C7.37804467 28.96532147 4.23639511 28.87666177 1 29 C1 28.67 1 28.34 1 28 C4.465 27.505 4.465 27.505 8 27 C7.70996094 25.80117187 7.70996094 25.80117187 7.4140625 24.578125 C5.82073435 17.85775084 4.49647003 11.21702994 3.625 4.36328125 C3.18535489 1.64504435 3.18535489 1.64504435 0 0 Z " fill="#E0AE7C" transform="translate(97,192)"/>
<path d="M0 0 C1.79187629 0.81203758 3.58349451 1.62464468 5.375 2.4375 C6.37273437 2.88996094 7.37046875 3.34242188 8.3984375 3.80859375 C9.94307583 4.51597316 11.48044922 5.24022461 13 6 C13 6.99 13 7.98 13 9 C16.3 10.65 19.6 12.3 23 14 C20 15 20 15 18.16796875 14.1875 C17.51441406 13.795625 16.86085937 13.40375 16.1875 13 C13.53705044 11.62195829 12.21982966 11.0048851 9.1875 10.9375 C5.100761 12.29974633 1.2686652 14.07125845 -2.609375 15.94140625 C-5 17 -5 17 -7 17 C-7 16.34 -7 15.68 -7 15 C-15.25 15 -23.5 15 -32 15 C-32 14.67 -32 14.34 -32 14 C-30.29457031 13.96132812 -30.29457031 13.96132812 -28.5546875 13.921875 C-18.00839539 13.57338883 -7.62987166 12.81493583 2 8 C1.34 7.01 0.68 6.02 0 5 C0.99 5 1.98 5 3 5 C2.505 4.54625 2.01 4.0925 1.5 3.625 C0 2 0 2 0 0 Z " fill="#BC8565" transform="translate(151,237)"/>
<path d="M0 0 C1.890625 0.21484375 1.890625 0.21484375 4 1 C5.046875 3.06640625 5.046875 3.06640625 5.75 5.5625 C5.99234375 6.38878906 6.2346875 7.21507812 6.484375 8.06640625 C6.65453125 8.70449219 6.8246875 9.34257812 7 10 C7.66 10 8.32 10 9 10 C11.34988822 15.72146697 12.36551883 21.0244722 12.75 27.1875 C12.79439209 27.86425781 12.83878418 28.54101562 12.88452148 29.23828125 C13.08837871 33.30545725 12.81829851 37.0138944 12 41 C10.515 41.495 10.515 41.495 9 42 C7.25493385 40.25493385 7.76717216 37.80960857 7.68359375 35.43359375 C7.62075195 33.7465332 7.62075195 33.7465332 7.55664062 32.02539062 C7.51732422 30.84138672 7.47800781 29.65738281 7.4375 28.4375 C7.39431641 27.24962891 7.35113281 26.06175781 7.30664062 24.83789062 C7.20016454 21.89205216 7.09815159 18.9461257 7 16 C6.34 16 5.68 16 5 16 C4.731875 14.80375 4.46375 13.6075 4.1875 12.375 C3.2608887 8.61522466 1.79952659 5.43545985 0 2 C0 1.34 0 0.68 0 0 Z " fill="#BD876A" transform="translate(175,181)"/>
<path d="M0 0 C7.86103579 0.47365649 14.52541097 2.69428307 21.875 5.4375 C23.00164062 5.84548828 24.12828125 6.25347656 25.2890625 6.67382812 C33.55836275 9.70557517 33.55836275 9.70557517 37 12 C37 12.99 37 13.98 37 15 C29.41442889 13.72771663 22.3585841 11.58610002 15.125 9 C13.59746094 8.46632812 13.59746094 8.46632812 12.0390625 7.921875 C7.90418269 6.4637858 3.88866529 5.03965966 0 3 C0 2.01 0 1.02 0 0 Z " fill="#F3B166" transform="translate(71,162)"/>
<path d="M0 0 C-0.04931641 1.82519531 -0.04931641 1.82519531 -1 4 C-3.44048453 5.15421559 -5.65287049 6.00128771 -8.2109375 6.796875 C-9.29684677 7.15462006 -9.29684677 7.15462006 -10.4046936 7.51959229 C-11.93722125 8.02124131 -13.47235008 8.51500191 -15.00976562 9.00146484 C-17.36367955 9.74641737 -19.70943447 10.51341927 -22.0546875 11.28515625 C-23.54384729 11.76953323 -25.03341816 12.2526486 -26.5234375 12.734375 C-27.22665131 12.96243835 -27.92986511 13.19050171 -28.65438843 13.42547607 C-31.55488883 14.34041304 -33.93829548 15 -37 15 C-37 14.01 -37 13.02 -37 12 C-29.78138205 8.87337306 -22.48130741 5.9724842 -15.125 3.1875 C-14.31699951 2.87353271 -13.50899902 2.55956543 -12.67651367 2.23608398 C-8.28955625 0.59648649 -4.76332357 -0.3905619 0 0 Z " fill="#F4BD75" transform="translate(252,162)"/>
<path d="M0 0 C2.60448057 0.36284793 3.73327139 0.69017666 5.47631836 2.71484375 C5.92628174 3.44832031 6.37624512 4.18179688 6.83984375 4.9375 C7.34580078 5.75089844 7.85175781 6.56429687 8.37304688 7.40234375 C8.88931641 8.25957031 9.40558594 9.11679688 9.9375 10 C10.44990234 10.82628906 10.96230469 11.65257813 11.49023438 12.50390625 C13.01986978 14.9878631 14.51732467 17.48775727 16 20 C16.49258301 20.83402344 16.98516602 21.66804688 17.49267578 22.52734375 C17.95013184 23.32269531 18.40758789 24.11804688 18.87890625 24.9375 C19.28826416 25.64777344 19.69762207 26.35804688 20.11938477 27.08984375 C21 29 21 29 21 32 C18.56069649 31.62390022 17.31179726 31.34522397 15.63134766 29.48461914 C15.22964355 28.84129639 14.82793945 28.19797363 14.4140625 27.53515625 C13.96071533 26.82190186 13.50736816 26.10864746 13.0402832 25.3737793 C12.57323975 24.61105713 12.10619629 23.84833496 11.625 23.0625 C11.14184326 22.29139893 10.65868652 21.52029785 10.16088867 20.72583008 C9.20155626 19.19009273 8.24757219 17.65099976 7.29931641 16.10839844 C6.19996313 14.32447982 5.07713645 12.55505936 3.94921875 10.7890625 C0 4.51178401 0 4.51178401 0 0 Z " fill="#F4BB72" transform="translate(109,113)"/>
<path d="M0 0 C0.99 0 1.98 0 3 0 C3.74520188 5.27766264 1.21798158 8.47165774 -1.5625 12.6875 C-2.01633057 13.39068359 -2.47016113 14.09386719 -2.93774414 14.81835938 C-4.27993435 16.88698663 -5.63878571 18.94386076 -7 21 C-8.04800781 22.61841797 -8.04800781 22.61841797 -9.1171875 24.26953125 C-12.50271739 29.34782609 -12.50271739 29.34782609 -14 31 C-14.99 31 -15.98 31 -17 31 C-16.42815606 27.41061593 -15.50263429 24.73473648 -13.671875 21.6015625 C-12.96611328 20.38726562 -12.96611328 20.38726562 -12.24609375 19.1484375 C-11.75238281 18.31570312 -11.25867188 17.48296875 -10.75 16.625 C-10.27175781 15.8 -9.79351562 14.975 -9.30078125 14.125 C-6.43477859 9.23182473 -3.55469612 4.42547739 0 0 Z " fill="#F1BA6D" transform="translate(210,114)"/>
<path d="M0 0 C5.48770165 0.30487231 8.51130477 3.66905464 12.375 7.1875 C13.65350519 8.32698074 14.93215044 9.46630435 16.2109375 10.60546875 C16.83323242 11.16927246 17.45552734 11.73307617 18.09667969 12.31396484 C20.57316248 14.50772961 23.14468046 16.57865994 25.73681641 18.6340332 C27 20 27 20 27 23 C22.52201739 22.48547417 20.21556879 20.89537315 16.8125 18 C15.86246094 17.19175781 14.91242188 16.38351563 13.93359375 15.55078125 C12.96550781 14.70902344 11.99742188 13.86726562 11 13 C9.56333984 11.78376953 9.56333984 11.78376953 8.09765625 10.54296875 C0.51964863 3.98695928 0.51964863 3.98695928 0 0 Z " fill="#F2BC76" transform="translate(87,135)"/>
<path d="M0 0 C1.32 0.33 2.64 0.66 4 1 C4.68118591 4.6224235 5.34220918 8.24826141 6 11.875 C6.19078125 12.88820313 6.3815625 13.90140625 6.578125 14.9453125 C7.73169237 21.3723307 8.26058928 27.47260057 8 34 C7.01 34 6.02 34 5 34 C4.14956932 30.21196462 3.32287239 26.41910893 2.5 22.625 C2.14228516 21.03365234 2.14228516 21.03365234 1.77734375 19.41015625 C0.36545095 12.83476977 -0.33890634 6.72352526 0 0 Z " fill="#F4BF7D" transform="translate(142,103)"/>
<path d="M0 0 C-0.82325756 7.17880594 -9.7163076 12.17187043 -15.03515625 16.4296875 C-22.39946619 22 -22.39946619 22 -27 22 C-26.44281812 18.36271668 -25.22538385 16.97373489 -22.39453125 14.6875 C-21.65783203 14.08679688 -20.92113281 13.48609375 -20.16210938 12.8671875 C-18.99905273 11.94292969 -18.99905273 11.94292969 -17.8125 11 C-17.05646484 10.38382813 -16.30042969 9.76765625 -15.52148438 9.1328125 C-4.22305861 0 -4.22305861 0 0 0 Z " fill="#F0B260" transform="translate(236,136)"/>
<path d="M0 0 C1.32 0 2.64 0 4 0 C3.49408601 10.85098273 1.92443806 21.32481528 0 32 C-1.98 32.495 -1.98 32.495 -4 33 C-4.24933861 25.58996829 -3.30000049 18.7236514 -2 11.4375 C-1.80921875 10.33341797 -1.6184375 9.22933594 -1.421875 8.09179688 C-0.95460111 5.39329016 -0.48051278 2.6961751 0 0 Z " fill="#F2BD70" transform="translate(176,103)"/>
<path d="M0 0 C1 3 1 3 -0.140625 5.359375 C-2.15650489 8.22226325 -4.34993876 10.70086663 -6.75 13.25 C-10.65698315 17.45357165 -14.19752538 21.74640538 -17.52734375 26.41796875 C-18.01332031 26.94003906 -18.49929687 27.46210938 -19 28 C-19.99 28 -20.98 28 -22 28 C-21.58473907 23.03532486 -19.00674689 20.19390336 -15.8125 16.625 C-15.31290771 16.05281738 -14.81331543 15.48063477 -14.29858398 14.89111328 C-13.31255644 13.76225522 -12.32315277 12.63633549 -11.33007812 11.51367188 C-9.70457225 9.66379367 -8.13414475 7.77069521 -6.5625 5.875 C-4.47338192 3.53111142 -2.61343043 1.70878144 0 0 Z " fill="#F2BC6B" transform="translate(225,124)"/>
<path d="M0 0 C0.66 0 1.32 0 2 0 C1.96777344 0.95261719 1.93554688 1.90523437 1.90234375 2.88671875 C1.66226865 10.11450071 1.66226865 10.11450071 5.0703125 16.04296875 C7.35275426 17.26289452 9.53090844 18.23183818 12 19 C8.34142468 20.31534494 5.91973519 19.65468309 2.25 18.5625 C0.77273437 18.13130859 0.77273437 18.13130859 -0.734375 17.69140625 C-1.85585937 17.34916016 -1.85585937 17.34916016 -3 17 C-3 16.34 -3 15.68 -3 15 C-5.31 14.67 -7.62 14.34 -10 14 C-10 17.3 -10 20.6 -10 24 C-10.33 24 -10.66 24 -11 24 C-11.33 20.7 -11.66 17.4 -12 14 C-16.455 13.01 -16.455 13.01 -21 12 C-21 11.34 -21 10.68 -21 10 C-13.45267196 9.6226336 -7.28859748 10.98935242 0 13 C0 8.71 0 4.42 0 0 Z " fill="#9D5736" transform="translate(114,179)"/>
<path d="M0 0 C3.61240229 5.41860343 3.118648 11.59277628 3.0625 17.9375 C3.05798828 18.62134766 3.05347656 19.30519531 3.04882812 20.00976562 C3.0371956 21.67321604 3.01926694 23.3366205 3 25 C4.32 25.33 5.64 25.66 7 26 C5.87980469 26.48210937 4.75960937 26.96421875 3.60546875 27.4609375 C2.13274595 28.0988047 0.66009335 28.73683401 -0.8125 29.375 C-1.55048828 29.69210938 -2.28847656 30.00921875 -3.04882812 30.3359375 C-4.11713867 30.8 -4.11713867 30.8 -5.20703125 31.2734375 C-5.8616333 31.55622559 -6.51623535 31.83901367 -7.19067383 32.13037109 C-9.26322799 33.07472913 -9.26322799 33.07472913 -12 35 C-12.99 35 -13.98 35 -15 35 C-14.79296875 33.1953125 -14.79296875 33.1953125 -14 31 C-11.92578125 29.3671875 -11.92578125 29.3671875 -9.3125 27.875 C-8.46300781 27.37742188 -7.61351562 26.87984375 -6.73828125 26.3671875 C-3.88388582 24.94202573 -1.04620106 23.93660648 2 23 C1.855625 21.75863281 1.71125 20.51726562 1.5625 19.23828125 C1.37485311 17.59637095 1.18736126 15.95444292 1 14.3125 C0.90460938 13.49587891 0.80921875 12.67925781 0.7109375 11.83789062 C0.26129478 7.87139948 -0.13034543 3.99997537 0 0 Z " fill="#D2A87E" transform="translate(204,170)"/>
<path d="M0 0 C0.66 0.33 1.32 0.66 2 1 C1.875 2.875 1.875 2.875 1 5 C-2.0625 6.25 -2.0625 6.25 -5 7 C-5 7.66 -5 8.32 -5 9 C-4.41992188 8.79503906 -3.83984375 8.59007812 -3.2421875 8.37890625 C4.01222919 5.87697046 10.33939057 4.86792053 18 5 C18.66 6.32 19.32 7.64 20 9 C19.01 8.67 18.02 8.34 17 8 C10.32072467 7.53601157 4.39774008 8.06860677 -2 10 C-0.68 11.65 0.64 13.3 2 15 C1.67 15.66 1.34 16.32 1 17 C-0.98 15.35 -2.96 13.7 -5 12 C-3.02 14.97 -3.02 14.97 -1 18 C-1.33 18.66 -1.66 19.32 -2 20 C-3.3421492 18.40320196 -4.67347115 16.79729803 -6 15.1875 C-7.11375 13.84751953 -7.11375 13.84751953 -8.25 12.48046875 C-10 10 -10 10 -10 7 C-9.04287109 6.61908203 -9.04287109 6.61908203 -8.06640625 6.23046875 C-6.82697266 5.71419922 -6.82697266 5.71419922 -5.5625 5.1875 C-4.73878906 4.85105469 -3.91507812 4.51460937 -3.06640625 4.16796875 C-0.66627512 3.11596912 -0.66627512 3.11596912 0 0 Z " fill="#DAB58F" transform="translate(92,218)"/>
<path d="M0 0 C0 0.99 0 1.98 0 3 C-5.67494623 3.21325476 -10.83815255 3.02785974 -16.3515625 1.64453125 C-19.90059712 0.78082813 -23.47965455 0.08134077 -27.0625 -0.625 C-27.74272217 -0.76010986 -28.42294434 -0.89521973 -29.1237793 -1.03442383 C-30.74899913 -1.35722583 -32.37447277 -1.67874956 -34 -2 C-34 -2.33 -34 -2.66 -34 -3 C-23.95554531 -4.69449134 -9.38493341 -4.69246671 0 0 Z " fill="#F2B266" transform="translate(106,182)"/>
<path d="M0 0 C0.99 0.33 1.98 0.66 3 1 C2.67 1.33 2.34 1.66 2 2 C3.72744016 2.65043719 5.4570369 3.29514844 7.1875 3.9375 C8.15042969 4.29714844 9.11335937 4.65679687 10.10546875 5.02734375 C15.9626882 6.99555919 21.31079086 7.15329889 27.4375 7.125 C28.68756836 7.13080078 28.68756836 7.13080078 29.96289062 7.13671875 C34.42202587 7.12966873 38.61120425 6.89916791 43 6 C40.03085699 8.96914301 37.35109415 9.13721236 33.33203125 9.31640625 C31.99301758 9.37924805 31.99301758 9.37924805 30.62695312 9.44335938 C29.23379883 9.50233398 29.23379883 9.50233398 27.8125 9.5625 C26.40194336 9.62727539 26.40194336 9.62727539 24.96289062 9.69335938 C22.64207146 9.79938665 20.32114675 9.90145029 18 10 C20.88265149 10.96088383 22.67662271 11.11670941 25.66796875 11.09765625 C26.56064453 11.09443359 27.45332031 11.09121094 28.37304688 11.08789062 C29.30181641 11.07951172 30.23058594 11.07113281 31.1875 11.0625 C32.12787109 11.05798828 33.06824219 11.05347656 34.03710938 11.04882812 C36.35813712 11.03704626 38.67903644 11.02059558 41 11 C41 11.33 41 11.66 41 12 C29.69272147 14.78748019 16.92897589 13.60013324 6 10 C8.89234315 9.17361624 10.88742431 9 14 9 C9.38 7.35 4.76 5.7 0 4 C0 2.68 0 1.36 0 0 Z " fill="#EFCCA5" transform="translate(168,243)"/>
<path d="M0 0 C5.05066545 3.34359696 9.37982836 7.19215656 13.5 11.625 C14.3559375 12.54539062 15.211875 13.46578125 16.09375 14.4140625 C18 17 18 17 18 21 C17.401875 20.690625 16.80375 20.38125 16.1875 20.0625 C13.91043228 18.89790296 13.91043228 18.89790296 11 18 C9.41284209 16.28835912 7.90010614 14.50672181 6.4375 12.6875 C5.65246094 11.72199219 4.86742188 10.75648437 4.05859375 9.76171875 C1.49533739 6.32296686 0 4.31518725 0 0 Z " fill="#F5C07A" transform="translate(88,112)"/>
<path d="M0 0 C0.33 0 0.66 0 1 0 C0.67 6.6 0.34 13.2 0 20 C4.1399898 22.17470769 4.1399898 22.17470769 8.28637695 24.3371582 C14.08455991 27.42072508 14.08455991 27.42072508 16 30 C16 30.99 16 31.98 16 33 C11.40191871 32.46105575 8.13215631 31.23428472 4.125 28.9375 C3.15820312 28.38964844 2.19140625 27.84179688 1.1953125 27.27734375 C0.47085938 26.85582031 -0.25359375 26.43429688 -1 26 C2 25 2 25 5 25 C1.535 23.02 1.535 23.02 -2 21 C-2.28307925 13.75002578 -1.50974035 7.09038772 0 0 Z " fill="#DAAF87" transform="translate(118,172)"/>
<path d="M0 0 C6.32538644 2.9249509 13.16567886 7.44563235 16 14 C16.6875 16.3125 16.6875 16.3125 17 18 C10.39563191 16.55026066 6.39497192 12.49764228 2.66796875 7.0546875 C0 2.54836572 0 2.54836572 0 0 Z " fill="#D1A578" transform="translate(87,230)"/>
<path d="M0 0 C0.99 0 1.98 0 3 0 C2.98839844 1.19238281 2.97679687 2.38476562 2.96484375 3.61328125 C2.95546408 5.17968594 2.94636407 6.74609231 2.9375 8.3125 C2.92912109 9.09818359 2.92074219 9.88386719 2.91210938 10.69335938 C2.90888672 11.45068359 2.90566406 12.20800781 2.90234375 12.98828125 C2.89710693 13.68477783 2.89187012 14.38127441 2.88647461 15.09887695 C2.93104009 17.22497968 2.93104009 17.22497968 4 20 C3.0625 23.1875 3.0625 23.1875 2 26 C4.64 26.33 7.28 26.66 10 27 C10.66 24.36 11.32 21.72 12 19 C13 23 13 23 11 28 C7.04 28 3.08 28 -1 28 C-1 27.34 -1 26.68 -1 26 C-1.66 26 -2.32 26 -3 26 C-2.71125 24.85402344 -2.4225 23.70804688 -2.125 22.52734375 C-1.74957805 20.99749932 -1.37460171 19.46754549 -1 17.9375 C-0.80921875 17.18533203 -0.6184375 16.43316406 -0.421875 15.65820312 C1.62000519 7.73676657 1.62000519 7.73676657 0 0 Z " fill="#E7BB91" transform="translate(216,193)"/>
<path d="M0 0 C0.33 0.99 0.66 1.98 1 3 C-0.68510565 5.06080133 -1.64401091 5.92000931 -4.27734375 6.51171875 C-24.26433141 7.83244481 -24.26433141 7.83244481 -29 5 C-27.454413 3.454413 -25.95843599 3.8373636 -23.80859375 3.7890625 C-22.94556641 3.76070312 -22.08253906 3.73234375 -21.19335938 3.703125 C-19.38364922 3.65182209 -17.57373052 3.60733342 -15.76367188 3.5703125 C-9.88298493 3.36168503 -5.40044365 2.35678638 0 0 Z " fill="#AE7753" transform="translate(214,248)"/>
<path d="M0 0 C0.33 0.99 0.66 1.98 1 3 C2.24716797 3.18175781 2.24716797 3.18175781 3.51953125 3.3671875 C5.14955078 3.61855469 5.14955078 3.61855469 6.8125 3.875 C7.89144531 4.03742188 8.97039062 4.19984375 10.08203125 4.3671875 C13 5 13 5 16 7 C15.14277344 6.84660156 14.28554687 6.69320312 13.40234375 6.53515625 C6.73413081 5.41868251 6.73413081 5.41868251 0.578125 7.4921875 C-1.12716609 9.24680519 -2.61718161 10.98359937 -4 13 C-4.33 12.34 -4.66 11.68 -5 11 C-6.98 12.32 -8.96 13.64 -11 15 C-11.66 14.67 -12.32 14.34 -13 14 C-12.48050781 13.57589844 -11.96101562 13.15179688 -11.42578125 12.71484375 C-6.80565028 8.82915135 -3.30081313 5.05437011 0 0 Z " fill="#EABE8F" transform="translate(212,219)"/>
<path d="M0 0 C1.32 0.66 2.64 1.32 4 2 C4 3.32 4 4.64 4 6 C8.62 6 13.24 6 18 6 C18 6.66 18 7.32 18 8 C16.97519531 8.12117187 15.95039062 8.24234375 14.89453125 8.3671875 C13.53381021 8.53610459 12.1731355 8.7053952 10.8125 8.875 C10.13896484 8.95363281 9.46542969 9.03226563 8.77148438 9.11328125 C4.86693008 9.60849301 1.62062743 10.51172827 -2 12 C-3.32 12 -4.64 12 -6 12 C-6 11.34 -6 10.68 -6 10 C-4.02 9.01 -2.04 8.02 0 7 C0 6.01 0 5.02 0 4 C-0.66 3.34 -1.32 2.68 -2 2 C-1.34 2 -0.68 2 0 2 C0 1.34 0 0.68 0 0 Z " fill="#A25B35" transform="translate(93,215)"/>
<path d="M0 0 C4.14780167 2.97307463 6.59682292 6.0306757 9.25 10.375 C9.93578125 11.47585937 10.6215625 12.57671875 11.328125 13.7109375 C12.96176284 16.92477643 13.63405567 19.43742428 14 23 C11.3144406 20.3144406 10.93950026 17.62378672 10 14 C8.68 13.67 7.36 13.34 6 13 C6.37253906 13.68707031 6.74507812 14.37414062 7.12890625 15.08203125 C7.83853516 16.43361328 7.83853516 16.43361328 8.5625 17.8125 C9.03816406 18.70582031 9.51382813 19.59914062 10.00390625 20.51953125 C11 23 11 23 10 26 C8.70768774 23.58367661 7.41612809 21.16695604 6.125 18.75 C5.76019531 18.06808594 5.39539063 17.38617188 5.01953125 16.68359375 C3.30606427 13.4747374 1.60006013 10.26749122 0 7 C0.66 7 1.32 7 2 7 C2.33 7.66 2.66 8.32 3 9 C2.44271087 5.65626525 1.64826111 2.96687001 0 0 Z " fill="#D3AB89" transform="translate(169,168)"/>
<path d="M0 0 C0.71285156 0.47050781 1.42570312 0.94101563 2.16015625 1.42578125 C7.31769625 4.77852933 12.23958562 7.82384346 18 10 C18 10.33 18 10.66 18 11 C16.35 11.33 14.7 11.66 13 12 C13.33 12.66 13.66 13.32 14 14 C8.84535266 13.51675181 5.18449681 10.81389239 1 8 C1.66 7.67 2.32 7.34 3 7 C2.690625 6.401875 2.38125 5.80375 2.0625 5.1875 C1 3 1 3 0 0 Z " fill="#D1A480" transform="translate(100,240)"/>
<path d="M0 0 C7.06601636 0.97012929 12.23013364 2.77736037 18 7 C17.67 7.99 17.34 8.98 17 10 C11.14727744 9.54979057 6.91779881 6.96160773 2 4 C2 3.01 2 2.02 2 1 C1.34 0.67 0.68 0.34 0 0 Z " fill="#F3B873" transform="translate(63,141)"/>
<path d="M0 0 C4.57399709 0.78488708 8.90157509 2.15526122 13.3125 3.5625 C14.05306641 3.79646484 14.79363281 4.03042969 15.55664062 4.27148438 C17.37183405 4.84531972 19.18602006 5.42234011 21 6 C21 6.99 21 7.98 21 9 C14.28299653 9.31985731 9.24273068 8.4793824 3 6 C4.32 5.67 5.64 5.34 7 5 C5.08895362 3.08895362 2.40439042 2.17661659 0 1 C0 0.67 0 0.34 0 0 Z " fill="#E5B78A" transform="translate(130,237)"/>
<path d="M0 0 C0.66 0.66 1.32 1.32 2 2 C2.66 1.34 3.32 0.68 4 0 C5.86128204 5.58384613 5.13770571 11.31147144 4 17 C3.01 17.33 2.02 17.66 1 18 C0 17 0 17 -0.09765625 13.18359375 C-0.09098089 11.60153318 -0.07901875 10.01948841 -0.0625 8.4375 C-0.05798828 7.63119141 -0.05347656 6.82488281 -0.04882812 5.99414062 C-0.03700518 3.99606244 -0.01906914 1.99802217 0 0 Z " fill="#BB8B68" transform="translate(183,205)"/>
<path d="M0 0 C1.2684375 0.2475 1.2684375 0.2475 2.5625 0.5 C-3.59850443 10.4084195 -3.59850443 10.4084195 -8.4375 13.5 C-9.0975 13.5 -9.7575 13.5 -10.4375 13.5 C-10.70017185 10.50028748 -10.66693064 8.88894603 -9.1171875 6.26171875 C-4.20076003 0.61101964 -4.20076003 0.61101964 0 0 Z " fill="#C8A27F" transform="translate(192.4375,169.5)"/>
<path d="M0 0 C0.33 0 0.66 0 1 0 C1.68246597 8.05309846 -0.21652411 14.83804 -4 22 C-4.99 22.33 -5.98 22.66 -7 23 C-6.68377223 20.99722415 -6.34450114 18.99810662 -6 17 C-5.8659375 16.18015625 -5.731875 15.3603125 -5.59375 14.515625 C-5.36171875 13.20851563 -5.36171875 13.20851563 -5.125 11.875 C-4.98320312 11.04742187 -4.84140625 10.21984375 -4.6953125 9.3671875 C-3.91371192 6.70623273 -2.70998527 5.15762539 -1 3 C-0.67 2.01 -0.34 1.02 0 0 Z " fill="#F3B366" transform="translate(199,94)"/>
<path d="M0 0 C5.27315333 0.4452885 10.01770224 1.08373163 15 3 C13.02 3.99 13.02 3.99 11 5 C14.96 6.65 18.92 8.3 23 10 C21 11 21 11 17.2265625 9.85546875 C15.68991782 9.30723875 14.15615722 8.75087429 12.625 8.1875 C11.47257812 7.77661133 11.47257812 7.77661133 10.296875 7.35742188 C6.74697146 6.07687709 3.35642704 4.73542002 0 3 C0 2.01 0 1.02 0 0 Z " fill="#F3C27B" transform="translate(71,162)"/>
<path d="M0 0 C0.99 0 1.98 0 3 0 C2.74337755 1.44010481 2.46909179 2.8770687 2.1875 4.3125 C2.03667969 5.11300781 1.88585937 5.91351563 1.73046875 6.73828125 C0.86662649 9.41295863 0.38093549 10.47898485 -2 12 C-5.3203125 12.14453125 -5.3203125 12.14453125 -9.125 11.8125 C-10.38570312 11.71582031 -11.64640625 11.61914062 -12.9453125 11.51953125 C-13.95335937 11.34808594 -14.96140625 11.17664063 -16 11 C-16.33 10.34 -16.66 9.68 -17 9 C-16.67 8.34 -16.34 7.68 -16 7 C-15.34 7 -14.68 7 -14 7 C-14 7.66 -14 8.32 -14 9 C-10.04 9 -6.08 9 -2 9 C-1.34 6.03 -0.68 3.06 0 0 Z " fill="#9F5F3D" transform="translate(229,212)"/>
<path d="M0 0 C1.1700097 3.91736581 0.69584017 6.97959015 0 11 C0.66 11 1.32 11 2 11 C2.33 10.01 2.66 9.02 3 8 C2.67 15.26 2.34 22.52 2 30 C-0.26954631 26.59568053 -0.36549949 24.83475798 -0.625 20.8125 C-0.69976562 19.72582031 -0.77453125 18.63914063 -0.8515625 17.51953125 C-0.92503906 16.27236328 -0.92503906 16.27236328 -1 15 C-1.66 15.99 -2.32 16.98 -3 18 C-3.36517527 11.42684522 -2.13619737 6.20514474 0 0 Z " fill="#D7AF8B" transform="translate(139,190)"/>
<path d="M0 0 C-0.33 1.32 -0.66 2.64 -1 4 C0.49853516 4.50660156 0.49853516 4.50660156 2.02734375 5.0234375 C3.33086217 5.47357336 4.63424043 5.92411525 5.9375 6.375 C6.59685547 6.59671875 7.25621094 6.8184375 7.93554688 7.046875 C12.88671875 8.7734375 12.88671875 8.7734375 14 11 C5.12308677 10.84694977 -1.37684116 7.15315766 -9 3 C-5.79678245 0.39225238 -4.1747899 -0.34789916 0 0 Z " fill="#9C573A" transform="translate(169,242)"/>
<path d="M0 0 C1.32 0 2.64 0 4 0 C3.85780436 2.20857055 3.71108153 4.41684987 3.5625 6.625 C3.48128906 7.85476562 3.40007812 9.08453125 3.31640625 10.3515625 C3.03336056 13.61532388 2.58961047 16.77943859 2 20 C1.67 20 1.34 20 1 20 C0.67 17.36 0.34 14.72 0 12 C-0.66 12.66 -1.32 13.32 -2 14 C-1.85795259 12.41632253 -1.71119847 10.83306682 -1.5625 9.25 C-1.48128906 8.36828125 -1.40007812 7.4865625 -1.31640625 6.578125 C-1.03761535 4.30649548 -0.61209423 2.20148177 0 0 Z " fill="#F5C27F" transform="translate(176,103)"/>
<path d="M0 0 C2.05014613 2.05014613 1.23057975 6.12884588 1.25 8.9375 C1.270625 9.67935547 1.29125 10.42121094 1.3125 11.18554688 C1.328125 13.33984375 1.328125 13.33984375 1 17 C0.01 17.66 -0.98 18.32 -2 19 C-1.505 10.09 -1.505 10.09 -1 1 C-2.98 1.99 -2.98 1.99 -5 3 C-7.1875 2.75 -7.1875 2.75 -9 2 C-9.33 1.34 -9.66 0.68 -10 0 C-6.28523623 -1.23825459 -3.81171187 -0.70587257 0 0 Z " fill="#B16A43" transform="translate(220,192)"/>
<path d="M0 0 C0 0.99 0 1.98 0 3 C-2.60258324 3.83857688 -5.20685647 4.67103344 -7.8125 5.5 C-8.91948242 5.85771484 -8.91948242 5.85771484 -10.04882812 6.22265625 C-13.13255196 7.19940136 -15.74495809 8 -19 8 C-19 7.01 -19 6.02 -19 5 C-15.74358332 3.19523895 -12.54663205 2.26051195 -8.9375 1.375 C-7.37322266 0.98441406 -7.37322266 0.98441406 -5.77734375 0.5859375 C-3 0 -3 0 0 0 Z " fill="#F3AF5E" transform="translate(234,169)"/>
<path d="M0 0 C0.66 0.33 1.32 0.66 2 1 C2.37890625 3.44140625 2.37890625 3.44140625 2.5625 6.5625 C2.88690168 11.41114652 3.35182635 16.18499572 4 21 C3.67 20.34 3.34 19.68 3 19 C2.34 19 1.68 19 1 19 C1 18.34 1 17.68 1 17 C0.34 17 -0.32 17 -1 17 C-1.02709444 14.91673869 -1.04643873 12.83337559 -1.0625 10.75 C-1.07410156 9.58984375 -1.08570313 8.4296875 -1.09765625 7.234375 C-1.01782092 4.59022872 -0.78643778 2.50173909 0 0 Z " fill="#A15F3E" transform="translate(137,204)"/>
<path d="M0 0 C0.66 0.33 1.32 0.66 2 1 C4.55693262 8.81284968 5.12573375 18.02849845 3 26 C2.67 26 2.34 26 2 26 C1.86722656 24.78183594 1.73445312 23.56367188 1.59765625 22.30859375 C1.41933033 20.6848893 1.24094157 19.06119175 1.0625 17.4375 C0.93198242 16.23770508 0.93198242 16.23770508 0.79882812 15.01367188 C0.3915883 11.31834755 -0.04431251 7.64443042 -0.62890625 3.97265625 C-0.75136719 2.99167969 -0.87382812 2.01070312 -1 1 C-0.67 0.67 -0.34 0.34 0 0 Z " fill="#995330" transform="translate(205,165)"/>
<path d="M0 0 C2.15749784 3.23624676 2.28360488 4.34394066 2.4140625 8.10546875 C2.45273438 9.08837891 2.49140625 10.07128906 2.53125 11.08398438 C2.5621875 12.10814453 2.593125 13.13230469 2.625 14.1875 C2.66367188 15.22326172 2.70234375 16.25902344 2.7421875 17.32617188 C2.83648296 19.88393622 2.92208202 22.44169287 3 25 C3.66 25 4.32 25 5 25 C4.25 30.75 4.25 30.75 2 33 C1.505 31.515 1.505 31.515 1 30 C0.67 30.66 0.34 31.32 0 32 C-0.66 32 -1.32 32 -2 32 C-1.67257813 31.11183594 -1.34515625 30.22367188 -1.0078125 29.30859375 C0.60329915 23.66970299 0.21090552 17.87433887 0.125 12.0625 C0.11597656 10.90169922 0.10695312 9.74089844 0.09765625 8.54492188 C0.07421162 5.69639892 0.04139522 2.84830922 0 0 Z " fill="#D4AA83" transform="translate(181,197)"/>
<path d="M0 0 C0.33 0.99 0.66 1.98 1 3 C-0.25 5.4375 -0.25 5.4375 -2 8 C-2.45375 8.7425 -2.9075 9.485 -3.375 10.25 C-5.44952792 12.48410699 -7.02450717 12.6783251 -10 13 C-9.55212676 8.35026146 -7.97814403 6.62972532 -4.4375 3.6875 C-3.61121094 2.99011719 -2.78492188 2.29273437 -1.93359375 1.57421875 C-1.29550781 1.05472656 -0.65742188 0.53523438 0 0 Z " fill="#F0AF65" transform="translate(225,124)"/>
<path d="M0 0 C1.8125 0.0625 1.8125 0.0625 4 1 C6.96464909 6.18813591 7.31111883 10.08874214 7 16 C4 12.25 4 12.25 4 10 C3.34 10 2.68 10 2 10 C0.68373308 6.38026598 0 3.90432869 0 0 Z " fill="#F2BA75" transform="translate(114,74)"/>
<path d="M0 0 C2.47266124 2.26237627 4.063866 4.57453333 5.6875 7.5 C6.12449219 8.2734375 6.56148437 9.046875 7.01171875 9.84375 C8 12 8 12 8 15 C5.51339545 14.6121322 4.27654781 14.29037521 2.515625 12.44140625 C2.09796875 11.82136719 1.6803125 11.20132813 1.25 10.5625 C0.82203125 9.94503906 0.3940625 9.32757813 -0.046875 8.69140625 C-1 7 -1 7 -1 5 C-0.34 5 0.32 5 1 5 C0.67 3.35 0.34 1.7 0 0 Z " fill="#F2B873" transform="translate(122,130)"/>
<path d="M0 0 C-1.49102561 4.60862461 -3.69454418 7.53330244 -7 11 C-7.99 11 -8.98 11 -10 11 C-9.72517902 7.06089933 -9.19816281 5.24636457 -6.6875 2.125 C-4 0 -4 0 0 0 Z " fill="#F0B05D" transform="translate(251,97)"/>
<path d="M0 0 C4.62 0 9.24 0 14 0 C14 0.66 14 1.32 14 2 C6.94546999 3.20443195 0.16562789 4.28100502 -7 4 C-6.67 3.34 -6.34 2.68 -6 2 C-4.02 2 -2.04 2 0 2 C0 1.34 0 0.68 0 0 Z " fill="#F0AA51" transform="translate(238,178)"/>
<path d="M0 0 C7.59762024 -0.38999191 13.84466021 0.39241413 21 3 C21 3.33 21 3.66 21 4 C13.93391809 4.13794954 7.02639415 3.74805717 0 3 C0 2.01 0 1.02 0 0 Z " fill="#F1A654" transform="translate(29,172)"/>
<path d="M0 0 C2.88265149 0.96088383 4.67662271 1.11670941 7.66796875 1.09765625 C8.56064453 1.09443359 9.45332031 1.09121094 10.37304688 1.08789062 C11.30181641 1.07951172 12.23058594 1.07113281 13.1875 1.0625 C14.12787109 1.05798828 15.06824219 1.05347656 16.03710938 1.04882812 C18.35813712 1.03704626 20.67903644 1.02059558 23 1 C23 1.33 23 1.66 23 2 C11.69272147 4.78748019 -1.07102411 3.60013324 -12 0 C-11.38125 -0.15082031 -10.7625 -0.30164063 -10.125 -0.45703125 C-8.00418549 -0.96842838 -8.00418549 -0.96842838 -6 -1.6875 C-3.37720416 -2.09731185 -2.2596922 -1.31207934 0 0 Z " fill="#D4AF95" transform="translate(186,253)"/>
<path d="M0 0 C1.32 0.33 2.64 0.66 4 1 C4.71033431 6.52967941 5.30267176 11.49983036 4 17 C0.51645625 11.77468437 -0.30934332 6.1868663 0 0 Z " fill="#F1B05F" transform="translate(142,103)"/>
<path d="M0 0 C5.21532312 1.09157926 7.22641416 3.03720048 10.1171875 7.24609375 C11 9 11 9 11 12 C6.88074963 10.41567294 3.68303664 7.45079789 1 4 C0.32421875 1.8046875 0.32421875 1.8046875 0 0 Z " fill="#F0B45C" transform="translate(110,139)"/>
<path d="M0 0 C0.33 0 0.66 0 1 0 C1.21824777 6.0018137 0.5056904 11.19233704 -1 17 C-0.34 17 0.32 17 1 17 C1.33 16.34 1.66 15.68 2 15 C1.48594831 19.96916636 0.76615118 24.29026351 -1 29 C-1.66 28.67 -2.32 28.34 -3 28 C-2.01 25.03 -1.02 22.06 0 19 C-0.99 19 -1.98 19 -3 19 C-2.27637073 12.60794144 -1.19656638 6.31972924 0 0 Z " fill="#D7AD87" transform="translate(232,193)"/>
<path d="M0 0 C5.94 0 11.88 0 18 0 C18 0.66 18 1.32 18 2 C18.66 2.33 19.32 2.66 20 3 C13.4 3 6.8 3 0 3 C0 2.01 0 1.02 0 0 Z " fill="#F1AA55" transform="translate(52,176)"/>
<path d="M0 0 C0.66 0.33 1.32 0.66 2 1 C2.33 1.99 2.66 2.98 3 4 C1.56705502 4.84114171 0.12845595 5.67265687 -1.3125 6.5 C-2.51326172 7.19609375 -2.51326172 7.19609375 -3.73828125 7.90625 C-6 9 -6 9 -9 9 C-8.63030147 6.34385824 -8.29524408 5.25241746 -6.22265625 3.48046875 C-5.50980469 3.05378906 -4.79695312 2.62710938 -4.0625 2.1875 C-3.35222656 1.74792969 -2.64195312 1.30835938 -1.91015625 0.85546875 C-1.27980469 0.57316406 -0.64945313 0.29085937 0 0 Z " fill="#C58F67" transform="translate(198,196)"/>
<path d="M0 0 C4.9154515 1.31877967 9.36441776 3.37517392 13 7 C13 7.99 13 8.98 13 10 C8.87248551 9.39301257 5.6678852 7.96189209 2 6 C2.66 5.34 3.32 4.68 4 4 C2.68 2.68 1.36 1.36 0 0 Z " fill="#F5C57C" transform="translate(98,158)"/>
<path d="M0 0 C0.66 0.33 1.32 0.66 2 1 C1.43410156 1.48210937 0.86820313 1.96421875 0.28515625 2.4609375 C-0.44832031 3.09257812 -1.18179688 3.72421875 -1.9375 4.375 C-2.66839844 5.00148437 -3.39929688 5.62796875 -4.15234375 6.2734375 C-6.08380906 7.87747714 -6.08380906 7.87747714 -7 10 C-6.34 10.33 -5.68 10.66 -5 11 C-8.06117568 13.62386487 -8.73173127 14 -13 14 C-12.75722624 10.64815577 -11.78030433 9.79196679 -9.27734375 7.421875 C-8.17185454 6.52159636 -7.05823943 5.6312214 -5.9375 4.75 C-5.36966797 4.29109375 -4.80183594 3.8321875 -4.21679688 3.359375 C-2.8180802 2.23099852 -1.40992986 1.1143337 0 0 Z " fill="#F4C782" transform="translate(222,144)"/>
<path d="M0 0 C-0.17625835 2.37948772 -0.69719773 3.70225849 -2.40234375 5.37890625 C-3.90649092 6.62115486 -5.45129851 7.81376056 -7 9 C-7 8.34 -7 7.68 -7 7 C-8.65 7.33 -10.3 7.66 -12 8 C-4.21621622 0 -4.21621622 0 0 0 Z " fill="#F4C582" transform="translate(236,136)"/>
<path d="M0 0 C0.33 0 0.66 0 1 0 C1.70005804 3.26827607 2.38286244 6.53992176 3.0625 9.8125 C3.26166016 10.74126953 3.46082031 11.67003906 3.66601562 12.62695312 C3.84970703 13.51962891 4.03339844 14.41230469 4.22265625 15.33203125 C4.39547119 16.15421143 4.56828613 16.9763916 4.74633789 17.82348633 C5 20 5 20 4 23 C2.68 23 1.36 23 0 23 C-0.33 20.69 -0.66 18.38 -1 16 C-0.34 16.99 0.32 17.98 1 19 C0.9278125 18.38253906 0.855625 17.76507813 0.78125 17.12890625 C0.1511141 11.37891613 -0.09328281 5.78353441 0 0 Z " fill="#D6A77C" transform="translate(91,194)"/>
<path d="M0 0 C2.52181288 0.28457432 5.04221196 0.57745058 7.5625 0.875 C8.26697266 0.95363281 8.97144531 1.03226563 9.69726562 1.11328125 C14.3131709 1.66633903 18.56176603 2.61195836 23 4 C23 4.33 23 4.66 23 5 C21.865625 4.855625 20.73125 4.71125 19.5625 4.5625 C15.04646944 3.99698633 10.52452819 3.49225191 6 3 C6 3.66 6 4.32 6 5 C6.66 5.33 7.32 5.66 8 6 C6.35 6.66 4.7 7.32 3 8 C3 6.68 3 5.36 3 4 C3.66 4 4.32 4 5 4 C5 3.34 5 2.68 5 2 C3.35 1.67 1.7 1.34 0 1 C0 0.67 0 0.34 0 0 Z " fill="#DBB294" transform="translate(87,186)"/>
<path d="M0 0 C-1 3 -1 3 -3.75 4.6875 C-6.85020705 5.93950669 -8.71671912 6.28970125 -12 6 C-12 5.01 -12 4.02 -12 3 C-4.71428571 -1.71428571 -4.71428571 -1.71428571 0 0 Z " fill="#F1B263" transform="translate(236,155)"/>
<path d="M0 0 C-2 8 -2 8 -5 11 C-5.99 11 -6.98 11 -8 11 C-7.43518386 7.04628701 -6.28003407 4.28324906 -4 1 C-2 0 -2 0 0 0 Z " fill="#F2B264" transform="translate(201,134)"/>
<path d="M0 0 C0.66 0.33 1.32 0.66 2 1 C2.05402274 3.10388569 2.09280256 5.20816714 2.125 7.3125 C2.14820313 8.48425781 2.17140625 9.65601563 2.1953125 10.86328125 C2 14 2 14 0 17 C-0.66 17 -1.32 17 -2 17 C-1.34 11.39 -0.68 5.78 0 0 Z " fill="#985839" transform="translate(233,193)"/>
<path d="M0 0 C0.33 0.99 0.66 1.98 1 3 C2.24716797 3.18175781 2.24716797 3.18175781 3.51953125 3.3671875 C5.14955078 3.61855469 5.14955078 3.61855469 6.8125 3.875 C7.89144531 4.03742188 8.97039062 4.19984375 10.08203125 4.3671875 C13 5 13 5 16 7 C14.95199219 6.89300781 13.90398437 6.78601563 12.82421875 6.67578125 C11.44538686 6.55384374 10.06647604 6.43279635 8.6875 6.3125 C7.99720703 6.23966797 7.30691406 6.16683594 6.59570312 6.09179688 C2.53545096 5.69877771 2.53545096 5.69877771 -0.98046875 7.48046875 C-1.48513672 8.23263672 -1.48513672 8.23263672 -2 9 C-2.66 8.67 -3.32 8.34 -4 8 C-2.68 5.36 -1.36 2.72 0 0 Z " fill="#DBA87E" transform="translate(212,219)"/>
<path d="M0 0 C1.8125 0.1875 1.8125 0.1875 4 1 C5.6875 3.5 5.6875 3.5 7 6 C7.33 6.33 7.66 6.66 8 7 C8.04063832 8.66617115 8.042721 10.33388095 8 12 C7.34 11.67 6.68 11.34 6 11 C6 10.34 6 9.68 6 9 C5.34 9 4.68 9 4 9 C0.88002198 5.69649386 0 4.67590167 0 0 Z " fill="#A25F3E" transform="translate(165,166)"/>
<path d="M0 0 C4.38366119 1.19554396 7.15378323 2.3874941 10 6 C10 6.99 10 7.98 10 9 C7.33289346 8.84759391 5.5494129 8.50635081 3.5546875 6.66796875 C0 2.49375 0 2.49375 0 0 Z " fill="#F1B062" transform="translate(104,149)"/>
<path d="M0 0 C2.9719385 1.12451727 5.33440687 2.22293791 8 4 C7.34 2.68 6.68 1.36 6 0 C9.26460973 1.80412643 10.88929795 2.83394693 13 6 C12.01 6.495 12.01 6.495 11 7 C11.99 8.32 12.98 9.64 14 11 C10.50004453 9.43810398 7.72827143 7.33666309 4.75 4.9375 C3.85796875 4.22464844 2.9659375 3.51179687 2.046875 2.77734375 C1.37140625 2.19082031 0.6959375 1.60429687 0 1 C0 0.67 0 0.34 0 0 Z " fill="#F6CD98" transform="translate(94,144)"/>
<path d="M0 0 C3.7726764 0.53895377 5.68212991 1.99535358 8 5 C7.75 7.25 7.75 7.25 7 9 C4.28902773 8.62607279 3.17999533 8.18642373 1.25 6.1875 C0 4 0 4 0 0 Z " fill="#F1AF67" transform="translate(73,96)"/>
<path d="M0 0 C-3.74546225 2.5916327 -6.19873346 3.36579572 -10.73828125 3.29296875 C-12.33833008 3.2784668 -12.33833008 3.2784668 -13.97070312 3.26367188 C-15.62489258 3.2259668 -15.62489258 3.2259668 -17.3125 3.1875 C-18.43462891 3.17396484 -19.55675781 3.16042969 -20.71289062 3.14648438 C-23.47575229 3.1112138 -26.23762829 3.06192235 -29 3 C-29 2.67 -29 2.34 -29 2 C-27.7934375 1.95101562 -26.586875 1.90203125 -25.34375 1.8515625 C-23.72914694 1.77646468 -22.11456461 1.70091997 -20.5 1.625 C-19.70851562 1.5940625 -18.91703125 1.563125 -18.1015625 1.53125 C-14.11441729 1.33516089 -10.45266929 0.94974564 -6.59375 -0.1015625 C-3 -1 -3 -1 0 0 Z " fill="#E9C499" transform="translate(148,249)"/>
<path d="M0 0 C0.66 0.33 1.32 0.66 2 1 C1.62671065 6.35048061 0.0042343 8.50912907 -4 12 C-5.0326802 9.21176345 -5.04509293 8.1322726 -4.0625 5.25 C-3.711875 4.5075 -3.36125 3.765 -3 3 C-2.01 3 -1.02 3 0 3 C0 2.01 0 1.02 0 0 Z " fill="#AF7859" transform="translate(181,226)"/>
<path d="M0 0 C2.09230769 4.43076923 2.09230769 4.43076923 1.625 7.3125 C1.41875 7.869375 1.2125 8.42625 1 9 C0.34 8.01 -0.32 7.02 -1 6 C-1.66 7.32 -2.32 8.64 -3 10 C-3 8.68 -3 7.36 -3 6 C-3.99 6 -4.98 6 -6 6 C-5.6875 4.125 -5.6875 4.125 -5 2 C-2 0 -2 0 0 0 Z " fill="#B17453" transform="translate(206,160)"/>
<path d="M0 0 C7.49756098 1.83902439 7.49756098 1.83902439 10 5 C10.66 5.66 11.32 6.32 12 7 C9.8125 7.75 9.8125 7.75 7 8 C3.98897417 5.99264944 1.48784187 3.61878091 -1 1 C-0.67 0.67 -0.34 0.34 0 0 Z " fill="#F0AC5F" transform="translate(91,155)"/>
<path d="M0 0 C1.125 3.75 1.125 3.75 0 6 C0.66 6 1.32 6 2 6 C2.66 4.02 3.32 2.04 4 0 C5.23593891 3.70781672 4.5678132 4.67510253 3.0625 8.1875 C2.68222656 9.08855469 2.30195313 9.98960938 1.91015625 10.91796875 C1.60980469 11.60503906 1.30945313 12.29210937 1 13 C0.34 12.01 -0.32 11.02 -1 10 C-1.99 10.99 -2.98 11.98 -4 13 C-3.52140759 11.39566191 -3.04210442 9.79153584 -2.5625 8.1875 C-2.29566406 7.29417969 -2.02882812 6.40085937 -1.75390625 5.48046875 C-1.19612127 3.64526945 -0.60655425 1.81966274 0 0 Z " fill="#F6CF95" transform="translate(200,87)"/>
<path d="M0 0 C2.5 1.375 2.5 1.375 5 3 C5 3.66 5 4.32 5 5 C5.99 5.33 6.98 5.66 8 6 C8.33 6.99 8.66 7.98 9 9 C0.84615385 7 0.84615385 7 -1 4 C-0.6875 1.8125 -0.6875 1.8125 0 0 Z " fill="#B07957" transform="translate(146,234)"/>
<path d="M0 0 C0.99 0.33 1.98 0.66 3 1 C1.64978174 5.41889613 -0.26115668 7.34345343 -4 10 C-4.66 9.67 -5.32 9.34 -6 9 C-4.47291037 5.56404834 -2.40072955 2.88087546 0 0 Z " fill="#AA6F4F" transform="translate(233,231)"/>
<path d="M0 0 C0 0.66 0 1.32 0 2 C0.66 2.66 1.32 3.32 2 4 C-1.9813783 5.3271261 -5.85045227 5.06915913 -10 5 C-10 4.01 -10 3.02 -10 2 C-6.38026598 0.68373308 -3.90432869 0 0 0 Z " fill="#E7B68A" transform="translate(183,241)"/>
<path d="M0 0 C3.43595166 1.52708963 6.11912454 3.59927045 9 6 C8.67 6.99 8.34 7.98 8 9 C4.68470727 8.01437243 3.25050621 7.34552581 1.1875 4.5 C0 2 0 2 0 0 Z " fill="#AC6C4C" transform="translate(95,239)"/>
<path d="M0 0 C0.33 0 0.66 0 1 0 C0.85851011 1.6045556 0.71164314 3.20863767 0.5625 4.8125 C0.48128906 5.70582031 0.40007812 6.59914062 0.31640625 7.51953125 C0 10 0 10 -1 13 C-1.99 13.33 -2.98 13.66 -4 14 C-3 5.42857143 -3 5.42857143 -2 2 C-1.34 2 -0.68 2 0 2 C0 1.34 0 0.68 0 0 Z " fill="#9B5A39" transform="translate(142,188)"/>
<path d="M0 0 C3.3 1.65 6.6 3.3 10 5 C9.01 5.33 8.02 5.66 7 6 C6.34 5.67 5.68 5.34 5 5 C5 6.32 5 7.64 5 9 C2.64561267 10.42944945 1.51967567 11.08661261 -1.25 10.625 C-1.8275 10.41875 -2.405 10.2125 -3 10 C-1.35 9.34 0.3 8.68 2 8 C1.34 7.01 0.68 6.02 0 5 C0.99 5 1.98 5 3 5 C2.2575 4.319375 2.2575 4.319375 1.5 3.625 C0 2 0 2 0 0 Z " fill="#DCB48D" transform="translate(151,237)"/>
<path d="M0 0 C0 0.66 0 1.32 0 2 C-0.66 2 -1.32 2 -2 2 C-2.2475 2.61875 -2.495 3.2375 -2.75 3.875 C-4.20628639 6.35068687 -5.37812506 6.95125002 -8 8 C-8.33 7.34 -8.66 6.68 -9 6 C-7.22316995 1.26178652 -5.12523122 0 0 0 Z " fill="#A35C3B" transform="translate(162,164)"/>
<path d="M0 0 C2.86688248 0.09096556 5.70300515 0.23767988 8.5625 0.4375 C9.36880859 0.48970703 10.17511719 0.54191406 11.00585938 0.59570312 C13.00421738 0.72577376 15.00215386 0.86229056 17 1 C15 3 15 3 12.3203125 3.265625 C11.26585937 3.26046875 10.21140625 3.2553125 9.125 3.25 C7.55105469 3.25773438 7.55105469 3.25773438 5.9453125 3.265625 C3.08400889 3.0075764 1.42723091 2.4774449 -1 1 C-0.67 0.67 -0.34 0.34 0 0 Z " fill="#9B5536" transform="translate(186,252)"/>
<path d="M0 0 C2.45823172 3.68734758 3.01242616 6.69699971 4 11 C3.34 10.67 2.68 10.34 2 10 C1.01 11.485 1.01 11.485 0 13 C-0.53229326 11.73392393 -1.05044544 10.46189588 -1.5625 9.1875 C-1.85253906 8.47980469 -2.14257812 7.77210937 -2.44140625 7.04296875 C-3 5 -3 5 -2 2 C-1.67 2.66 -1.34 3.32 -1 4 C-0.67 2.68 -0.34 1.36 0 0 Z " fill="#F5C890" transform="translate(132,115)"/>
<path d="M0 0 C4.84688192 0.78175515 9.3766367 2.39844278 14 4 C13.67 4.66 13.34 5.32 13 6 C4.83413394 5.65103136 4.83413394 5.65103136 1.4375 3 C0 1 0 1 0 0 Z " fill="#C9854F" transform="translate(126,237)"/>
<path d="M0 0 C0.33 0 0.66 0 1 0 C1 1.65 1 3.3 1 5 C4.3 4.67 7.6 4.34 11 4 C11 4.66 11 5.32 11 6 C12.65 6.33 14.3 6.66 16 7 C15.360625 7.103125 14.72125 7.20625 14.0625 7.3125 C13.381875 7.539375 12.70125 7.76625 12 8 C11.67 8.99 11.34 9.98 11 11 C10.67 10.01 10.34 9.02 10 8 C5.02093741 7.24572703 5.02093741 7.24572703 0 7 C0 4.69 0 2.38 0 0 Z " fill="#E0B893" transform="translate(210,185)"/>
<path d="M0 0 C0 0.99 0 1.98 0 3 C-0.66 3.66 -1.32 4.32 -2 5 C-2 6.32 -2 7.64 -2 9 C-1.34 8.67 -0.68 8.34 0 8 C-1.1858237 11.37503669 -2.27573689 13.64722731 -5 16 C-5 5.5 -5 5.5 0 0 Z " fill="#D5AD8B" transform="translate(153,168)"/>
<path d="M0 0 C0.66 0.33 1.32 0.66 2 1 C0.92319498 2.13125022 -0.16175635 3.25474919 -1.25 4.375 C-1.85328125 5.00148437 -2.4565625 5.62796875 -3.078125 6.2734375 C-4.9700588 7.97310161 -6.68201309 8.98459866 -9 10 C-9 8.35 -9 6.7 -9 5 C-6.94134379 3.9706719 -4.88288407 2.94311512 -2.8125 1.9375 C-1.03113252 1.1322004 -1.03113252 1.1322004 0 0 Z " fill="#BC8A5D" transform="translate(159,168)"/>
<path d="M0 0 C1.890625 0.21484375 1.890625 0.21484375 4 1 C5.046875 3.06640625 5.046875 3.06640625 5.75 5.5625 C5.99234375 6.38878906 6.2346875 7.21507812 6.484375 8.06640625 C6.65453125 8.70449219 6.8246875 9.34257812 7 10 C6.01 10 5.02 10 4 10 C3.32845067 8.71086513 2.66291141 7.41859796 2 6.125 C1.62875 5.40570313 1.2575 4.68640625 0.875 3.9453125 C0 2 0 2 0 0 Z " fill="#9C5A3A" transform="translate(175,181)"/>
<path d="M0 0 C4.05606165 0.46800711 7.46588679 0.87953208 11 3 C9.25 7.875 9.25 7.875 7 9 C7 8.01 7 7.02 7 6 C6.01 6 5.02 6 4 6 C4.33 4.68 4.66 3.36 5 2 C3.35 1.67 1.7 1.34 0 1 C0 0.67 0 0.34 0 0 Z " fill="#D5AB83" transform="translate(228,226)"/>
<path d="M0 0 C1.41377341 2.63904371 2.37240135 5.07120629 3 8 C2.01 7.67 1.02 7.34 0 7 C-0.33 7.66 -0.66 8.32 -1 9 C-0.34 9.33 0.32 9.66 1 10 C0.01 10 -0.98 10 -2 10 C-4.09230769 5.56923077 -4.09230769 5.56923077 -3.625 2.6875 C-3.41875 2.130625 -3.2125 1.57375 -3 1 C-3 1.66 -3 2.32 -3 3 C-2.34 3 -1.68 3 -1 3 C-0.67 2.01 -0.34 1.02 0 0 Z " fill="#C99E80" transform="translate(141,220)"/>
<path d="M0 0 C1.65 0.33 3.3 0.66 5 1 C5.33 2.32 5.66 3.64 6 5 C4.39431334 4.71682074 2.79047953 4.42312209 1.1875 4.125 C0.29417969 3.96257812 -0.59914063 3.80015625 -1.51953125 3.6328125 C-4 3 -4 3 -7 1 C-4.69 1 -2.38 1 0 1 C0 0.67 0 0.34 0 0 Z " fill="#F2BF75" transform="translate(102,172)"/>
<path d="M0 0 C3.0831351 1.19899698 6.06279492 2.47700477 9 4 C9 4.99 9 5.98 9 7 C9.99 7.33 10.98 7.66 12 8 C11.34 8.66 10.68 9.32 10 10 C8.33037631 8.52417192 6.6643694 7.04425109 5 5.5625 C4.071875 4.73878906 3.14375 3.91507813 2.1875 3.06640625 C1.465625 2.38449219 0.74375 1.70257813 0 1 C0 0.67 0 0.34 0 0 Z " fill="#EFA54B" transform="translate(91,139)"/>
<path d="M0 0 C0.25 5.625 0.25 5.625 -2 9 C-2.99 9 -3.98 9 -5 9 C-4.6875 5.625 -4.6875 5.625 -4 2 C-1 0 -1 0 0 0 Z " fill="#F1B060" transform="translate(209,119)"/>
<path d="M0 0 C0.66 0.33 1.32 0.66 2 1 C1.67 2.65 1.34 4.3 1 6 C-0.32 6.33 -1.64 6.66 -3 7 C-3 6.34 -3 5.68 -3 5 C-4.98 5.33 -6.96 5.66 -9 6 C-6.12050853 3.76039553 -3.23257974 1.70135776 0 0 Z " fill="#F4C67F" transform="translate(267,135)"/>
<path d="M0 0 C2.86724686 0.57344937 3.8614515 0.8614515 6 3 C6 4.32 6 5.64 6 7 C5.401875 6.690625 4.80375 6.38125 4.1875 6.0625 C1.91043228 4.89790296 1.91043228 4.89790296 -1 4 C-0.67 2.68 -0.34 1.36 0 0 Z " fill="#F0AD64" transform="translate(100,126)"/>
<path d="M0 0 C-3.65857532 1.31534494 -6.08026481 0.65468309 -9.75 -0.4375 C-11.22726563 -0.86869141 -11.22726563 -0.86869141 -12.734375 -1.30859375 C-13.48203125 -1.53675781 -14.2296875 -1.76492187 -15 -2 C-15 -2.33 -15 -2.66 -15 -3 C-8.74509557 -4.56372611 -5.44673303 -3.29633454 0 0 Z " fill="#B78059" transform="translate(126,198)"/>
<path d="M0 0 C1.32 0 2.64 0 4 0 C4.33 1.32 4.66 2.64 5 4 C6.32 4.33 7.64 4.66 9 5 C7.68 5.99 6.36 6.98 5 8 C0 2.25 0 2.25 0 0 Z " fill="#F0BD79" transform="translate(174,168)"/>
<path d="M0 0 C0.33 0 0.66 0 1 0 C0.25 6.625 0.25 6.625 -2 10 C-2.66 10 -3.32 10 -4 10 C-4.40717933 6.43718089 -4.14368753 5.20857868 -2.0625 2.1875 C-1.381875 1.465625 -0.70125 0.74375 0 0 Z " fill="#EEB45F" transform="translate(187,129)"/>
<path d="M0 0 C2.31 1.98 4.62 3.96 7 6 C6.67 6.66 6.34 7.32 6 8 C4.68 6.68 3.36 5.36 2 4 C2.33 5.65 2.66 7.3 3 9 C1.2925002 7.71937515 -0.37373596 6.38232443 -2 5 C-2 4.34 -2 3.68 -2 3 C-1.34 3 -0.68 3 0 3 C0 2.01 0 1.02 0 0 Z " fill="#F7CE92" transform="translate(87,109)"/>
<path d="M0 0 C0.33 0 0.66 0 1 0 C1 3.96 1 7.92 1 12 C0.01 12 -0.98 12 -2 12 C-1.85831863 10.56208484 -1.71148957 9.1246763 -1.5625 7.6875 C-1.48128906 6.88699219 -1.40007812 6.08648437 -1.31640625 5.26171875 C-1 3 -1 3 0 0 Z " fill="#995430" transform="translate(185,210)"/>
<path d="M0 0 C0.33 0 0.66 0 1 0 C1.08074203 2.62561109 1.1403623 5.24875676 1.1875 7.875 C1.22520508 8.99455078 1.22520508 8.99455078 1.26367188 10.13671875 C1.29296875 12.3046875 1.29296875 12.3046875 1 16 C0.01 16.66 -0.98 17.32 -2 18 C-2 15.69 -2 13.38 -2 11 C-1.67 11 -1.34 11 -1 11 C-0.67 7.37 -0.34 3.74 0 0 Z " fill="#C07E48" transform="translate(220,193)"/>
<path d="M0 0 C0.33 0 0.66 0 1 0 C1.33895656 1.72807318 1.67091525 3.45751974 2 5.1875 C2.185625 6.15042969 2.37125 7.11335937 2.5625 8.10546875 C2.96877612 10.7934206 3.07933572 13.28771019 3 16 C1 15 1 15 0 12 C-0.068991 9.93854893 -0.08467727 7.87498599 -0.0625 5.8125 C-0.05347656 4.72582031 -0.04445313 3.63914063 -0.03515625 2.51953125 C-0.02355469 1.68808594 -0.01195313 0.85664063 0 0 Z " fill="#955033" transform="translate(90,198)"/>
<path d="M0 0 C4.21912747 0.4794463 6.79663178 1.16625119 10 4 C7.03 3.505 7.03 3.505 4 3 C4 3.66 4 4.32 4 5 C2.68 4.67 1.36 4.34 0 4 C0 2.68 0 1.36 0 0 Z " fill="#F4C384" transform="translate(45,130)"/>
<path d="M0 0 C2.86207152 1.28299758 5.0245088 2.530636 7 5 C7 5.99 7 6.98 7 8 C6.01 8 5.02 8 4 8 C0 2.74285714 0 2.74285714 0 0 Z " fill="#9E5A3B" transform="translate(87,230)"/>
<path d="M0 0 C3 2 3 2 3.51171875 4.1640625 C3.56972656 4.97617188 3.62773437 5.78828125 3.6875 6.625 C3.75324219 7.44226563 3.81898438 8.25953125 3.88671875 9.1015625 C3.92410156 9.72804687 3.96148437 10.35453125 4 11 C3.01 11.495 3.01 11.495 2 12 C0.86235649 7.73383684 0 4.43513689 0 0 Z " fill="#97522D" transform="translate(182,196)"/>
<path d="M0 0 C4 0 4 0 5.8125 1.75 C7.23657851 4.44825402 6.867133 5.19214076 6 8 C4.99403703 7.0479279 3.99538437 6.08812654 3 5.125 C2.443125 4.59132812 1.88625 4.05765625 1.3125 3.5078125 C0 2 0 2 0 0 Z " fill="#9C5B36" transform="translate(133,174)"/>
<path d="M0 0 C0 0.66 0 1.32 0 2 C1.32 2.33 2.64 2.66 4 3 C0.7 3.66 -2.6 4.32 -6 5 C-6 4.01 -6 3.02 -6 2 C-2.25 0 -2.25 0 0 0 Z " fill="#F0BD74" transform="translate(221,172)"/>
<path d="M0 0 C-0.33 0.99 -0.66 1.98 -1 3 C-2.7634375 3.2165625 -2.7634375 3.2165625 -4.5625 3.4375 C-8.38212272 3.91410176 -12.19110019 4.44453544 -16 5 C-13.13879225 3.09252817 -10.64745007 1.99646294 -7.4375 0.8125 C-6.46683594 0.44769531 -5.49617187 0.08289063 -4.49609375 -0.29296875 C-2 -1 -2 -1 0 0 Z " fill="#F4C782" transform="translate(237,167)"/>
<path d="M0 0 C1.67542976 0.28604898 3.34385343 0.61781233 5 1 C4.67 1.99 4.34 2.98 4 4 C2.35 4.33 0.7 4.66 -1 5 C-1.33 5.99 -1.66 6.98 -2 8 C-1.125 1.125 -1.125 1.125 0 0 Z " fill="#C18E74" transform="translate(117,160)"/>
<path d="M0 0 C1.32 0.33 2.64 0.66 4 1 C4.66 3.97 5.32 6.94 6 10 C5.34 10 4.68 10 4 10 C3.67 8.02 3.34 6.04 3 4 C2.34 4 1.68 4 1 4 C0.67 2.68 0.34 1.36 0 0 Z " fill="#F0B052" transform="translate(117,125)"/>
<path d="M0 0 C6.57142857 5.14285714 6.57142857 5.14285714 8 9 C2.37865749 7.53356282 2.37865749 7.53356282 0.625 5.0625 C0 3 0 3 0 0 Z " fill="#EEA550" transform="translate(88,112)"/>
<path d="M0 0 C-5.52677733 0.19392201 -9.75614911 -0.2520497 -15 -2 C-13.66666667 -2.33333333 -12.33333333 -2.66666667 -11 -3 C-10.34 -3.226875 -9.68 -3.45375 -9 -3.6875 C-5.33900157 -4.25953101 -2.95639892 -1.97093261 0 0 Z " fill="#BC886D" transform="translate(189,255)"/>
<path d="M0 0 C0.66 0 1.32 0 2 0 C1.67 1.98 1.34 3.96 1 6 C-0.32 6.33 -1.64 6.66 -3 7 C-2.25 2.25 -2.25 2.25 0 0 Z " fill="#EFB370" transform="translate(206,145)"/>
<path d="M0 0 C0.33 0 0.66 0 1 0 C1 3.63 1 7.26 1 11 C0.01 11.495 0.01 11.495 -1 12 C-2.42857143 3.42857143 -2.42857143 3.42857143 0 0 Z " fill="#F1A951" transform="translate(176,113)"/>
<path d="M0 0 C2 1.5 2 1.5 4 4 C4.35800135 6.75871627 4.18660165 9.20097524 4 12 C0.46209597 8.30827405 0.40884117 4.90609405 0 0 Z " fill="#EEA952" transform="translate(128,109)"/>
<path d="M0 0 C0.66 0 1.32 0 2 0 C2 0.66 2 1.32 2 2 C4.31 2 6.62 2 9 2 C9.33 2.66 9.66 3.32 10 4 C6.7 4 3.4 4 0 4 C-0.33 3.34 -0.66 2.68 -1 2 C-0.67 1.34 -0.34 0.68 0 0 Z " fill="#A25730" transform="translate(213,219)"/>
<path d="M0 0 C-1.32 0.33 -2.64 0.66 -4 1 C-4 1.66 -4 2.32 -4 3 C-6.64 3 -9.28 3 -12 3 C-12 2.34 -12 1.68 -12 1 C-8.0186217 -0.3271261 -4.14954773 -0.06915913 0 0 Z " fill="#F1AB5F" transform="translate(229,182)"/>
<path d="M0 0 C2.125 0.375 2.125 0.375 4 1 C2.35 2.98 0.7 4.96 -1 7 C-1.66 6.67 -2.32 6.34 -3 6 C-2.42655063 3.13275314 -2.1385485 2.1385485 0 0 Z " fill="#A56744" transform="translate(191,170)"/>
<path d="M0 0 C2.64 0 5.28 0 8 0 C8 0.66 8 1.32 8 2 C8.66 2.33 9.32 2.66 10 3 C8.375 3.6875 8.375 3.6875 6 4 C2.75 2.5625 2.75 2.5625 0 1 C0 0.67 0 0.34 0 0 Z " fill="#F0AC50" transform="translate(81,166)"/>
<path d="M0 0 C3.73487777 0.4979837 5.81237635 0.87491756 9 3 C9 3.66 9 4.32 9 5 C6.69 4.67 4.38 4.34 2 4 C2 3.01 2 2.02 2 1 C1.34 0.67 0.68 0.34 0 0 Z " fill="#EEAA54" transform="translate(63,141)"/>
<path d="M0 0 C2.72426311 2.35277269 3.8141763 4.62496331 5 8 C4.01 7.67 3.02 7.34 2 7 C1.67 7.99 1.34 8.98 1 10 C0.34 8.35 -0.32 6.7 -1 5 C-0.34 5 0.32 5 1 5 C0.67 3.35 0.34 1.7 0 0 Z " fill="#F8C885" transform="translate(122,130)"/>
<path d="M0 0 C2.80045623 3.14591933 3.35261589 5.067064 3.1875 9.25 C3.16042969 10.14203125 3.13335937 11.0340625 3.10546875 11.953125 C3.07066406 12.62859375 3.03585938 13.3040625 3 14 C1.20724134 10.88089144 0.65709282 8.32317572 0.375 4.75 C0.30023438 3.85796875 0.22546875 2.9659375 0.1484375 2.046875 C0.09945312 1.37140625 0.05046875 0.6959375 0 0 Z " fill="#CBA180" transform="translate(87,196)"/>
<path d="M0 0 C1.66611905 -0.042721 3.33382885 -0.04063832 5 0 C6 1 6 1 6.09765625 3.94140625 C6.08605469 5.13636719 6.07445313 6.33132812 6.0625 7.5625 C6.05347656 8.76003906 6.04445313 9.95757812 6.03515625 11.19140625 C6.02355469 12.11824219 6.01195313 13.04507813 6 14 C5.67 14 5.34 14 5 14 C4.89042969 13.15695313 4.78085938 12.31390625 4.66796875 11.4453125 C4.43013672 9.80175781 4.43013672 9.80175781 4.1875 8.125 C3.96126953 6.48917969 3.96126953 6.48917969 3.73046875 4.8203125 C3.25334259 1.68761154 3.25334259 1.68761154 0 0 Z " fill="#E1B07D" transform="translate(97,192)"/>
<path d="M0 0 C0.66 0 1.32 0 2 0 C2.99 2.97 3.98 5.94 5 9 C4.01 9 3.02 9 2 9 C1.34 6.03 0.68 3.06 0 0 Z " fill="#EFA649" transform="translate(121,91)"/>
<path d="M0 0 C2.64 0 5.28 0 8 0 C8 0.66 8 1.32 8 2 C5.36 2.33 2.72 2.66 0 3 C0 2.01 0 1.02 0 0 Z " fill="#9C5736" transform="translate(221,189)"/>
<path d="M0 0 C0 1.32 0 2.64 0 4 C-1.65 4.66 -3.3 5.32 -5 6 C-5 4.35 -5 2.7 -5 1 C-2 0 -2 0 0 0 Z " fill="#B38163" transform="translate(187,177)"/>
<path d="M0 0 C1.33333333 0.66666667 2.66666667 1.33333333 4 2 C4.721875 2.268125 5.44375 2.53625 6.1875 2.8125 C8 4 8 4 8.75 6.625 C8.87375 7.800625 8.87375 7.800625 9 9 C7 9 7 9 5.2734375 7.28515625 C4.64695313 6.55167969 4.02046875 5.81820312 3.375 5.0625 C2.74335938 4.33160156 2.11171875 3.60070312 1.4609375 2.84765625 C0 1 0 1 0 0 Z " fill="#F4C78C" transform="translate(134,166)"/>
<path d="M0 0 C-0.33 1.32 -0.66 2.64 -1 4 C-3.31 4 -5.62 4 -8 4 C-5.29881977 1.17603885 -4.05589853 0 0 0 Z " fill="#EDAF59" transform="translate(252,162)"/>
<path d="M0 0 C0.33 0.66 0.66 1.32 1 2 C2.32 1.67 3.64 1.34 5 1 C3.68 3.31 2.36 5.62 1 8 C0.67 7.34 0.34 6.68 0 6 C0.33 5.34 0.66 4.68 1 4 C0.01 4.33 -0.98 4.66 -2 5 C-1.34 3.35 -0.68 1.7 0 0 Z " fill="#F2C185" transform="translate(200,130)"/>
<path d="M0 0 C1.98 0.66 3.96 1.32 6 2 C5.67 3.65 5.34 5.3 5 7 C1.18461538 4.53846154 1.18461538 4.53846154 0.25 1.8125 C0.1675 1.214375 0.085 0.61625 0 0 Z " fill="#F2B872" transform="translate(110,139)"/>
<path d="M0 0 C0.33 0.66 0.66 1.32 1 2 C2.32 1.67 3.64 1.34 5 1 C3.35 2.65 1.7 4.3 0 6 C0 5.34 0 4.68 0 4 C-0.99 4.33 -1.98 4.66 -3 5 C-1.125 1.125 -1.125 1.125 0 0 Z " fill="#F4C688" transform="translate(214,135)"/>
<path d="M0 0 C0.66 0.66 1.32 1.32 2 2 C1.75 4.5625 1.75 4.5625 1 7 C0.01 7.495 0.01 7.495 -1 8 C-1 6.68 -1 5.36 -1 4 C-2.98 4.99 -2.98 4.99 -5 6 C-3.35 4.02 -1.7 2.04 0 0 Z " fill="#F7CA90" transform="translate(226,121)"/>
<path d="M0 0 C2.475 0.495 2.475 0.495 5 1 C5 2.65 5 4.3 5 6 C3.68 5.67 2.36 5.34 1 5 C0.67 3.35 0.34 1.7 0 0 Z " fill="#F1AD52" transform="translate(82,106)"/>
<path d="M0 0 C2.70272533 2.87164566 3.94791837 4.30991841 4.25 8.3125 C4.1675 9.199375 4.085 10.08625 4 11 C0.85041169 7.57653445 0.43820891 4.55737263 0 0 Z " fill="#F2A045" transform="translate(117,79)"/>
<path d="M0 0 C0.66 0.33 1.32 0.66 2 1 C-0.25 3.5 -0.25 3.5 -3 6 C-4.32 6 -5.64 6 -7 6 C-7 5.34 -7 4.68 -7 4 C-1.7265625 0.77734375 -1.7265625 0.77734375 0 0 Z " fill="#9E5D3A" transform="translate(94,221)"/>
<path d="M0 0 C0.66 0.33 1.32 0.66 2 1 C1.75 2.875 1.75 2.875 1 5 C-0.8125 6.3125 -0.8125 6.3125 -3 7 C-5.25 6.625 -5.25 6.625 -7 6 C-6.030625 5.566875 -5.06125 5.13375 -4.0625 4.6875 C-0.72268235 3.2985139 -0.72268235 3.2985139 0 0 Z " fill="#E2C1A2" transform="translate(92,218)"/>
<path d="M0 0 C2.25 0.125 2.25 0.125 5 1 C7.3125 4.0625 7.3125 4.0625 9 7 C5.18315774 5.44499019 2.80804268 2.96404505 0 0 Z " fill="#F3C990" transform="translate(125,159)"/>
<path d="M0 0 C1.65 0 3.3 0 5 0 C4.67 0.99 4.34 1.98 4 3 C1.4375 4.1875 1.4375 4.1875 -1 5 C-0.67 3.35 -0.34 1.7 0 0 Z " fill="#EFAE5C" transform="translate(269,135)"/>
<path d="M0 0 C-0.66 1.32 -1.32 2.64 -2 4 C-2 3.34 -2 2.68 -2 2 C-4.31 3.65 -6.62 5.3 -9 7 C-6.79922603 2.09058114 -5.62803596 0 0 0 Z " fill="#F4CB8B" transform="translate(251,97)"/>
<path d="M0 0 C3.63 0 7.26 0 11 0 C10.01 1.485 10.01 1.485 9 3 C2.25 2.25 2.25 2.25 0 0 Z " fill="#E4AF79" transform="translate(133,242)"/>
<path d="M0 0 C1.32 0.66 2.64 1.32 4 2 C4 3.32 4 4.64 4 6 C3.01 6 2.02 6 1 6 C-0.6875 4 -0.6875 4 -2 2 C-1.34 2 -0.68 2 0 2 C0 1.34 0 0.68 0 0 Z " fill="#B47151" transform="translate(93,215)"/>
<path d="M0 0 C1.32 0.33 2.64 0.66 4 1 C4 1.99 4 2.98 4 4 C3.34 3.67 2.68 3.34 2 3 C2.33 4.32 2.66 5.64 3 7 C1.5 5.75 1.5 5.75 0 4 C0 2.68 0 1.36 0 0 Z " fill="#F3C180" transform="translate(109,113)"/>
<path d="M0 0 C0.33 0 0.66 0 1 0 C1.17942163 3.94727588 1.09350689 6.5980513 -1 10 C-1.66 10 -2.32 10 -3 10 C-2.05066101 6.64566891 -1.10251165 3.30753495 0 0 Z " fill="#EFA545" transform="translate(203,83)"/>
<path d="M0 0 C3 2 3 2 3.6875 4.625 C3.790625 5.40875 3.89375 6.1925 4 7 C2.68 6.67 1.36 6.34 0 6 C-0.38218767 4.34385343 -0.71395102 2.67542976 -1 1 C-0.67 0.67 -0.34 0.34 0 0 Z " fill="#9E5E3E" transform="translate(141,226)"/>
<path d="M0 0 C0.99 0 1.98 0 3 0 C2.67 2.31 2.34 4.62 2 7 C1.67 6.34 1.34 5.68 1 5 C0.34 5 -0.32 5 -1 5 C-0.67 3.35 -0.34 1.7 0 0 Z " fill="#D2865A" transform="translate(214,214)"/>
<path d="M0 0 C1.65 0 3.3 0 5 0 C4.67 0.99 4.34 1.98 4 3 C2.35 3.33 0.7 3.66 -1 4 C-0.67 2.68 -0.34 1.36 0 0 Z " fill="#EFB26E" transform="translate(213,164)"/>
<path d="M0 0 C0 0.66 0 1.32 0 2 C0.66 2 1.32 2 2 2 C2 2.66 2 3.32 2 4 C0.1875 4.6875 0.1875 4.6875 -2 5 C-3.75 3.5625 -3.75 3.5625 -5 2 C-2 0 -2 0 0 0 Z " fill="#F3C483" transform="translate(254,143)"/>
<path d="M0 0 C0.66 0.33 1.32 0.66 2 1 C-0.75 3.0625 -0.75 3.0625 -4 5 C-6.203125 4.62109375 -6.203125 4.62109375 -8 4 C-6.71349294 3.30289269 -5.42059335 2.61757124 -4.125 1.9375 C-3.40570313 1.55464844 -2.68640625 1.17179688 -1.9453125 0.77734375 C-1.30335938 0.52082031 -0.66140625 0.26429688 0 0 Z " fill="#F2C786" transform="translate(139,143)"/>
<path d="M0 0 C2.33944736 0.28730055 4.6739143 0.61936779 7 1 C4.64046906 3.35953094 3.22104383 3.49141413 0 4 C-0.33 3.01 -0.66 2.02 -1 1 C-0.67 0.67 -0.34 0.34 0 0 Z " fill="#BD8B64" transform="translate(144,250)"/>
<path d="M0 0 C0.66 0.33 1.32 0.66 2 1 C1.67 1.99 1.34 2.98 1 4 C-0.65 4.33 -2.3 4.66 -4 5 C-2.25 1.125 -2.25 1.125 0 0 Z " fill="#A16441" transform="translate(220,244)"/>
<path d="M0 0 C0.625 1.8125 0.625 1.8125 1 4 C0.01 5.485 0.01 5.485 -1 7 C-1.66 7 -2.32 7 -3 7 C-2.625 4.0625 -2.625 4.0625 -2 1 C-1.34 0.67 -0.68 0.34 0 0 Z " fill="#AD7554" transform="translate(234,203)"/>
<path d="M0 0 C0 0.99 0 1.98 0 3 C-2.64 3 -5.28 3 -8 3 C-5.36657694 0.36657694 -3.69534435 0 0 0 Z " fill="#F1A749" transform="translate(234,169)"/>
<path d="M0 0 C0.556875 0.226875 1.11375 0.45375 1.6875 0.6875 C-2.74326923 3.76442308 -2.74326923 3.76442308 -5.625 3.375 C-6.4603125 3.0346875 -6.4603125 3.0346875 -7.3125 2.6875 C-2.88173077 -0.38942308 -2.88173077 -0.38942308 0 0 Z " fill="#ECA341" transform="translate(243.3125,150.3125)"/>
<path d="M0 0 C0.99 0 1.98 0 3 0 C2.67 1.32 2.34 2.64 2 4 C0.68 4.33 -0.64 4.66 -2 5 C-1.34 3.35 -0.68 1.7 0 0 Z " fill="#EEA959" transform="translate(233,136)"/>
</svg>
